<?xml version="1.0" encoding="UTF-8" standalone="no"?>
<!-- Created with Inkscape (http://www.inkscape.org/) -->
<svg
   xmlns:dc="http://purl.org/dc/elements/1.1/"
   xmlns:cc="http://creativecommons.org/ns#"
   xmlns:rdf="http://www.w3.org/1999/02/22-rdf-syntax-ns#"
   xmlns:svg="http://www.w3.org/2000/svg"
   xmlns="http://www.w3.org/2000/svg"
   xmlns:xlink="http://www.w3.org/1999/xlink"
   xmlns:sodipodi="http://sodipodi.sourceforge.net/DTD/sodipodi-0.dtd"
   xmlns:inkscape="http://www.inkscape.org/namespaces/inkscape"
   width="210mm"
   height="297mm"
   id="svg2"
   sodipodi:version="0.32"
   inkscape:version="0.46"
   sodipodi:docname="db9.svg"
   inkscape:output_extension="org.inkscape.output.svg.inkscape">
  <defs
     id="defs4">
    <inkscape:perspective
       sodipodi:type="inkscape:persp3d"
       inkscape:vp_x="0 : 526.18109 : 1"
       inkscape:vp_y="0 : 1000 : 0"
       inkscape:vp_z="744.09448 : 526.18109 : 1"
       inkscape:persp3d-origin="372.04724 : 350.78739 : 1"
       id="perspective10" />
    <inkscape:perspective
       id="perspective2390"
       inkscape:persp3d-origin="372.04724 : 350.78739 : 1"
       inkscape:vp_z="744.09448 : 526.18109 : 1"
       inkscape:vp_y="0 : 1000 : 0"
       inkscape:vp_x="0 : 526.18109 : 1"
       sodipodi:type="inkscape:persp3d" />
    <inkscape:perspective
       id="perspective2410"
       inkscape:persp3d-origin="372.04724 : 350.78739 : 1"
       inkscape:vp_z="744.09448 : 526.18109 : 1"
       inkscape:vp_y="0 : 1000 : 0"
       inkscape:vp_x="0 : 526.18109 : 1"
       sodipodi:type="inkscape:persp3d" />
  </defs>
  <sodipodi:namedview
     id="base"
     pagecolor="#ffffff"
     bordercolor="#666666"
     borderopacity="1.0"
     inkscape:pageopacity="0.0"
     inkscape:pageshadow="2"
     inkscape:zoom="2.8284271"
     inkscape:cx="256.12801"
     inkscape:cy="658.5"
     inkscape:document-units="px"
     inkscape:current-layer="layer1"
     showgrid="false"
     showguides="true"
     inkscape:guide-bbox="true"
     inkscape:snap-guide="true"
     inkscape:window-width="1024"
     inkscape:window-height="721"
     inkscape:window-x="0"
     inkscape:window-y="20">
    <sodipodi:guide
       orientation="0,1"
       position="229.10067,746.63087"
       id="guide3487" />
  </sodipodi:namedview>
  <metadata
     id="metadata7">
    <rdf:RDF>
      <cc:Work
         rdf:about="">
        <dc:format>image/svg+xml</dc:format>
        <dc:type
           rdf:resource="http://purl.org/dc/dcmitype/StillImage" />
      </cc:Work>
    </rdf:RDF>
  </metadata>
  <g
     inkscape:label="Camada 1"
     inkscape:groupmode="layer"
     id="layer1">
    <rect
       style="opacity:1;fill:#c0c0c0;fill-opacity:1;stroke:none;stroke-width:3;stroke-miterlimit:4;stroke-dasharray:none;stroke-opacity:1"
       id="rect3489"
       width="146.49664"
       height="146.49664"
       x="221.79866"
       y="333.11389"
       ry="0" />
    <path
       style="fill:#61c8f6;fill-opacity:1;fill-rule:evenodd;stroke:#000000;stroke-width:4.99999952;stroke-miterlimit:4;stroke-dasharray:none;stroke-opacity:1"
       d="M 241.37337,370.83463 C 236.74926,372.12881 231.44221,376.04043 228.69243,379.75198 C 225.81847,383.63112 223.76799,389.90897 223.40305,394.63683 C 224.13533,404.47537 229.26884,425.76278 229.26883,425.76278 C 229.26883,425.76278 231.79783,433.20598 234.79556,435.96856 C 237.79329,438.73116 239.0144,440.23783 249.03619,442.24122 C 253.57279,443.4568 289.72205,442.81986 297.18308,442.81763 C 311.8056,442.75869 326.47762,443.61738 341.05779,442.24122 C 351.07956,440.23783 352.33459,438.73116 355.33233,435.96856 C 358.33006,433.20598 360.85905,425.76278 360.85905,425.76278 C 360.85904,425.76278 365.95865,404.47537 366.69093,394.63683 C 366.69093,389.90718 364.30942,383.63112 361.43546,379.75198 C 358.68566,376.04043 353.37862,372.12881 348.75451,370.83463 C 344.04976,369.57401 303.81309,369.74908 297.2509,369.74963 C 278.64614,370.09424 259.90625,368.90158 241.37337,370.83463 z"
       id="path3450"
       sodipodi:nodetypes="csccscccsccsccc" />
    <path
       sodipodi:type="arc"
       style="fill:#f8f9ed;fill-opacity:1;stroke:#f8f991;stroke-width:3;stroke-miterlimit:4;stroke-dasharray:none;stroke-opacity:1"
       id="path3456"
       sodipodi:cx="249.88751"
       sodipodi:cy="397.35657"
       sodipodi:rx="2.8683915"
       sodipodi:ry="2.6996624"
       d="M 252.7559,397.35657 A 2.8683915,2.6996624 0 1 1 247.01912,397.35657 A 2.8683915,2.6996624 0 1 1 252.7559,397.35657 z"
       transform="matrix(1.0579994,0,0,1.0909257,-16.218007,-38.110097)" />
    <path
       transform="matrix(1.0579994,0,0,1.0909257,7.0579703,-38.110097)"
       d="M 252.7559,397.35657 A 2.8683915,2.6996624 0 1 1 247.01912,397.35657 A 2.8683915,2.6996624 0 1 1 252.7559,397.35657 z"
       sodipodi:ry="2.6996624"
       sodipodi:rx="2.8683915"
       sodipodi:cy="397.35657"
       sodipodi:cx="249.88751"
       id="path3458"
       style="fill:#f8f9ed;fill-opacity:1;stroke:#f8f991;stroke-width:3;stroke-miterlimit:4;stroke-dasharray:none;stroke-opacity:1"
       sodipodi:type="arc" />
    <path
       sodipodi:type="arc"
       style="fill:#f8f9ed;fill-opacity:1;stroke:#f8f991;stroke-width:3;stroke-miterlimit:4;stroke-dasharray:none;stroke-opacity:1"
       id="path3460"
       sodipodi:cx="249.88751"
       sodipodi:cy="397.35657"
       sodipodi:rx="2.8683915"
       sodipodi:ry="2.6996624"
       d="M 252.7559,397.35657 A 2.8683915,2.6996624 0 1 1 247.01912,397.35657 A 2.8683915,2.6996624 0 1 1 252.7559,397.35657 z"
       transform="matrix(1.0850005,0,0,1.0850005,23.493268,-35.755666)" />
    <path
       transform="matrix(1.0579994,0,0,1.0909257,53.609959,-38.110097)"
       d="M 252.7559,397.35657 A 2.8683915,2.6996624 0 1 1 247.01912,397.35657 A 2.8683915,2.6996624 0 1 1 252.7559,397.35657 z"
       sodipodi:ry="2.6996624"
       sodipodi:rx="2.8683915"
       sodipodi:cy="397.35657"
       sodipodi:cx="249.88751"
       id="path3462"
       style="fill:#f8f9ed;fill-opacity:1;stroke:#f8f991;stroke-width:3;stroke-miterlimit:4;stroke-dasharray:none;stroke-opacity:1"
       sodipodi:type="arc" />
    <path
       sodipodi:type="arc"
       style="fill:#f8f9ed;fill-opacity:1;stroke:#f8f991;stroke-width:3;stroke-miterlimit:4;stroke-dasharray:none;stroke-opacity:1"
       id="path3464"
       sodipodi:cx="249.88751"
       sodipodi:cy="397.35657"
       sodipodi:rx="2.8683915"
       sodipodi:ry="2.6996624"
       d="M 252.7559,397.35657 A 2.8683915,2.6996624 0 1 1 247.01912,397.35657 A 2.8683915,2.6996624 0 1 1 252.7559,397.35657 z"
       transform="matrix(1.0579994,0,0,1.0909257,76.885937,-38.110097)" />
    <path
       sodipodi:type="arc"
       style="fill:#f8f9ed;fill-opacity:1;stroke:#f8f991;stroke-width:3;stroke-miterlimit:4;stroke-dasharray:none;stroke-opacity:1"
       id="path3466"
       sodipodi:cx="249.88751"
       sodipodi:cy="397.35657"
       sodipodi:rx="2.8683915"
       sodipodi:ry="2.6996624"
       d="M 252.7559,397.35657 A 2.8683915,2.6996624 0 1 1 247.01912,397.35657 A 2.8683915,2.6996624 0 1 1 252.7559,397.35657 z"
       transform="matrix(1.0579994,0,0,1.0909257,-4.5911018,-13.873944)" />
    <path
       transform="matrix(1.0579994,0,0,1.0909257,18.979551,-13.873944)"
       d="M 252.7559,397.35657 A 2.8683915,2.6996624 0 1 1 247.01912,397.35657 A 2.8683915,2.6996624 0 1 1 252.7559,397.35657 z"
       sodipodi:ry="2.6996624"
       sodipodi:rx="2.8683915"
       sodipodi:cy="397.35657"
       sodipodi:cx="249.88751"
       id="path3468"
       style="fill:#f8f9ed;fill-opacity:1;stroke:#f8f991;stroke-width:3;stroke-miterlimit:4;stroke-dasharray:none;stroke-opacity:1"
       sodipodi:type="arc" />
    <path
       sodipodi:type="arc"
       style="fill:#f8f9ed;fill-opacity:1;stroke:#f8f991;stroke-width:3;stroke-miterlimit:4;stroke-dasharray:none;stroke-opacity:1"
       id="path3470"
       sodipodi:cx="249.88751"
       sodipodi:cy="397.35657"
       sodipodi:rx="2.8683915"
       sodipodi:ry="2.6996624"
       d="M 252.7559,397.35657 A 2.8683915,2.6996624 0 1 1 247.01912,397.35657 A 2.8683915,2.6996624 0 1 1 252.7559,397.35657 z"
       transform="matrix(1.0579994,0,0,1.0909257,41.777986,-13.873944)" />
    <path
       transform="matrix(1.0579994,0,0,1.0909257,65.341998,-13.873944)"
       d="M 252.7559,397.35657 A 2.8683915,2.6996624 0 1 1 247.01912,397.35657 A 2.8683915,2.6996624 0 1 1 252.7559,397.35657 z"
       sodipodi:ry="2.6996624"
       sodipodi:rx="2.8683915"
       sodipodi:cy="397.35657"
       sodipodi:cx="249.88751"
       id="path3472"
       style="fill:#f8f9ed;fill-opacity:1;stroke:#f8f991;stroke-width:3;stroke-miterlimit:4;stroke-dasharray:none;stroke-opacity:1"
       sodipodi:type="arc" />
    <image
       y="496.86218"
       x="19.5"
       id="image2412"
       height="99"
       width="293"
       sodipodi:absref="D:\j-9Serial.jpg"
       xlink:href="D:\j-9Serial.jpg" />
  </g>
</svg>
