<?xml version="1.0" encoding="UTF-8" standalone="no"?>
<!-- Created with Inkscape (http://www.inkscape.org/) -->
<svg
   xmlns:ns="http://creativecommons.org/ns#"
   xmlns:dc="http://purl.org/dc/elements/1.1/"
   xmlns:cc="http://web.resource.org/cc/"
   xmlns:rdf="http://www.w3.org/1999/02/22-rdf-syntax-ns#"
   xmlns:svg="http://www.w3.org/2000/svg"
   xmlns="http://www.w3.org/2000/svg"
   xmlns:sodipodi="http://sodipodi.sourceforge.net/DTD/sodipodi-0.dtd"
   xmlns:inkscape="http://www.inkscape.org/namespaces/inkscape"
   width="48"
   height="48"
   id="svg2"
   sodipodi:version="0.32"
   inkscape:version="0.46dev+devel"
   sodipodi:docname="TSerialPortDriver.svg"
   inkscape:output_extension="org.inkscape.output.svg.inkscape"
   sodipodi:docbase="G:\HMI_SCADA\artwork\scalable"
   version="1.0"
   inkscape:export-filename="C:\HMI_SCADA\artwork\24x24\TSerialPortDriver.png"
   inkscape:export-xdpi="45"
   inkscape:export-ydpi="45">
  <defs
     id="defs4">
    <inkscape:perspective
       sodipodi:type="inkscape:persp3d"
       inkscape:vp_x="-50 : 600 : 1"
       inkscape:vp_y="0 : 1000 : 0"
       inkscape:vp_z="700 : 600 : 1"
       inkscape:persp3d-origin="300 : 400 : 1"
       id="perspective25" />
    <inkscape:perspective
       sodipodi:type="inkscape:persp3d"
       inkscape:vp_x="0 : 526.18109 : 1"
       inkscape:vp_y="0 : 1000 : 0"
       inkscape:vp_z="744.09448 : 526.18109 : 1"
       inkscape:persp3d-origin="372.04724 : 350.78739 : 1"
       id="perspective10" />
    <inkscape:perspective
       id="perspective2390"
       inkscape:persp3d-origin="372.04724 : 350.78739 : 1"
       inkscape:vp_z="744.09448 : 526.18109 : 1"
       inkscape:vp_y="0 : 1000 : 0"
       inkscape:vp_x="0 : 526.18109 : 1"
       sodipodi:type="inkscape:persp3d" />
    <inkscape:perspective
       id="perspective2410"
       inkscape:persp3d-origin="372.04724 : 350.78739 : 1"
       inkscape:vp_z="744.09448 : 526.18109 : 1"
       inkscape:vp_y="0 : 1000 : 0"
       inkscape:vp_x="0 : 526.18109 : 1"
       sodipodi:type="inkscape:persp3d" />
  </defs>
  <sodipodi:namedview
     id="base"
     pagecolor="#ffffff"
     bordercolor="#666666"
     borderopacity="1.0"
     inkscape:pageopacity="0.0"
     inkscape:pageshadow="2"
     inkscape:zoom="10.541667"
     inkscape:cx="24"
     inkscape:cy="24"
     inkscape:document-units="px"
     inkscape:current-layer="layer1"
     showgrid="false"
     showguides="true"
     inkscape:guide-bbox="true"
     inkscape:snap-guide="true"
     inkscape:window-width="1024"
     inkscape:window-height="721"
     inkscape:window-x="-4"
     inkscape:window-y="-4"
     width="48px"
     height="48px">
    <sodipodi:guide
       orientation="0,1"
       position="229.10067,746.63087"
       id="guide3487" />
  </sodipodi:namedview>
  <metadata
     id="metadata7">
    <rdf:RDF>
      <ns:Work
         rdf:about="">
        <dc:format>image/svg+xml</dc:format>
        <dc:type
           rdf:resource="http://purl.org/dc/dcmitype/StillImage" />
      </ns:Work>
      <ns:Work
         rdf:about="">
        <dc:format>image/svg+xml</dc:format>
        <dc:type
           rdf:resource="http://purl.org/dc/dcmitype/StillImage" />
      </ns:Work>
      <cc:Work
         rdf:about="">
        <dc:format>image/svg+xml</dc:format>
        <dc:type
           rdf:resource="http://purl.org/dc/dcmitype/StillImage" />
      </cc:Work>
    </rdf:RDF>
  </metadata>
  <g
     inkscape:label="Camada 1"
     inkscape:groupmode="layer"
     id="layer1">
    <path
       style="fill:#e1e1ff;fill-opacity:1;fill-rule:evenodd;stroke:#000064;stroke-width:1.54129827000000000;stroke-miterlimit:4;stroke-dasharray:none;stroke-opacity:1"
       d="M 7.3463969,23.119423 C 5.9116495,23.515775 4.2650024,24.713736 3.4118133,25.850425 C 2.5200944,27.038439 1.8838811,28.961075 1.7706491,30.409015 C 1.9978575,33.422138 3.5906593,39.941558 3.5906562,39.941558 C 3.5906562,39.941558 4.3753427,42.22109 5.3054644,43.06715 C 6.2355861,43.913216 6.6144666,44.374644 9.7239813,44.988196 C 11.131577,45.360477 22.347802,45.16541 24.662776,45.164727 C 29.199784,45.146675 33.75215,45.409656 38.276018,44.988196 C 41.385527,44.374644 41.774932,43.913216 42.705056,43.06715 C 43.635179,42.22109 44.419862,39.941558 44.419862,39.941558 C 44.419859,39.941558 46.002142,33.422138 46.22935,30.409015 C 46.22935,28.960527 45.490427,27.038439 44.598708,25.850425 C 43.745512,24.713736 42.098868,23.515775 40.664121,23.119423 C 39.204353,22.733349 26.719905,22.786965 24.683818,22.787134 C 18.91122,22.892674 13.096694,22.527413 7.3463969,23.119423 z "
       id="path3450"
       sodipodi:nodetypes="csccscccsccsccc" />
    <g
       id="g3171"
       transform="matrix(1.2752128,0,0,1.2752128,-3.4170756,3.394916)"
       style="fill:#000064;fill-opacity:1;stroke:#000064;stroke-opacity:1">
      <path
         transform="matrix(0.339785,0,0,0.3610216,-75.408028,-122.95434)"
         d="M 252.7559 397.35657 A 2.8683915 2.6996624 0 1 1  247.01912,397.35657 A 2.8683915 2.6996624 0 1 1  252.7559 397.35657 z"
         sodipodi:ry="2.6996624"
         sodipodi:rx="2.8683915"
         sodipodi:cy="397.35657"
         sodipodi:cx="249.88751"
         id="path3456"
         style="fill:#000064;fill-opacity:1;stroke:#000064;stroke-width:3;stroke-miterlimit:4;stroke-dasharray:none;stroke-opacity:1"
         sodipodi:type="arc" />
      <path
         sodipodi:type="arc"
         style="fill:#000064;fill-opacity:1;stroke:#000064;stroke-width:3;stroke-miterlimit:4;stroke-dasharray:none;stroke-opacity:1"
         id="path3458"
         sodipodi:cx="249.88751"
         sodipodi:cy="397.35657"
         sodipodi:rx="2.8683915"
         sodipodi:ry="2.6996624"
         d="M 252.7559 397.35657 A 2.8683915 2.6996624 0 1 1  247.01912,397.35657 A 2.8683915 2.6996624 0 1 1  252.7559 397.35657 z"
         transform="matrix(0.339785,0,0,0.3610216,-69.408028,-122.95434)" />
      <path
         transform="matrix(0.3397851,0,0,0.3610216,-63.408053,-122.9543)"
         d="M 252.7559 397.35657 A 2.8683915 2.6996624 0 1 1  247.01912,397.35657 A 2.8683915 2.6996624 0 1 1  252.7559 397.35657 z"
         sodipodi:ry="2.6996624"
         sodipodi:rx="2.8683915"
         sodipodi:cy="397.35657"
         sodipodi:cx="249.88751"
         id="path3460"
         style="fill:#000064;fill-opacity:1;stroke:#000064;stroke-width:3;stroke-miterlimit:4;stroke-dasharray:none;stroke-opacity:1"
         sodipodi:type="arc" />
      <path
         sodipodi:type="arc"
         style="fill:#000064;fill-opacity:1;stroke:#000064;stroke-width:3;stroke-miterlimit:4;stroke-dasharray:none;stroke-opacity:1"
         id="path3462"
         sodipodi:cx="249.88751"
         sodipodi:cy="397.35657"
         sodipodi:rx="2.8683915"
         sodipodi:ry="2.6996624"
         d="M 252.7559 397.35657 A 2.8683915 2.6996624 0 1 1  247.01912,397.35657 A 2.8683915 2.6996624 0 1 1  252.7559 397.35657 z"
         transform="matrix(0.339785,0,0,0.3610216,-57.408028,-122.95434)" />
      <path
         transform="matrix(0.339785,0,0,0.3610216,-51.408028,-122.95434)"
         d="M 252.7559 397.35657 A 2.8683915 2.6996624 0 1 1  247.01912,397.35657 A 2.8683915 2.6996624 0 1 1  252.7559 397.35657 z"
         sodipodi:ry="2.6996624"
         sodipodi:rx="2.8683915"
         sodipodi:cy="397.35657"
         sodipodi:cx="249.88751"
         id="path3464"
         style="fill:#000064;fill-opacity:1;stroke:#000064;stroke-width:3;stroke-miterlimit:4;stroke-dasharray:none;stroke-opacity:1"
         sodipodi:type="arc" />
      <g
         transform="translate(0,-0.4699653)"
         id="g3165"
         style="fill:#000064;fill-opacity:1;stroke:#000064;stroke-opacity:1">
        <path
           sodipodi:type="arc"
           style="fill:#000064;fill-opacity:1;stroke:#000064;stroke-width:3;stroke-miterlimit:4;stroke-dasharray:none;stroke-opacity:1"
           id="path3466"
           sodipodi:cx="249.88751"
           sodipodi:cy="397.35657"
           sodipodi:rx="2.8683915"
           sodipodi:ry="2.6996624"
           d="M 252.7559 397.35657 A 2.8683915 2.6996624 0 1 1  247.01912,397.35657 A 2.8683915 2.6996624 0 1 1  252.7559 397.35657 z"
           transform="matrix(0.339785,0,0,0.3610216,-72.408028,-115.48435)" />
        <path
           transform="matrix(0.3249963,0,0,0.3351106,-62.785278,-105.08814)"
           d="M 252.7559 397.35657 A 2.8683915 2.6996624 0 1 1  247.01912,397.35657 A 2.8683915 2.6996624 0 1 1  252.7559 397.35657 z"
           sodipodi:ry="2.6996624"
           sodipodi:rx="2.8683915"
           sodipodi:cy="397.35657"
           sodipodi:cx="249.88751"
           id="path3468"
           style="fill:#000064;fill-opacity:1;stroke:#000064;stroke-width:3;stroke-miterlimit:4;stroke-dasharray:none;stroke-opacity:1"
           sodipodi:type="arc" />
        <path
           sodipodi:type="arc"
           style="fill:#000064;fill-opacity:1;stroke:#000064;stroke-width:3;stroke-miterlimit:4;stroke-dasharray:none;stroke-opacity:1"
           id="path3470"
           sodipodi:cx="249.88751"
           sodipodi:cy="397.35657"
           sodipodi:rx="2.8683915"
           sodipodi:ry="2.6996624"
           d="M 252.7559 397.35657 A 2.8683915 2.6996624 0 1 1  247.01912,397.35657 A 2.8683915 2.6996624 0 1 1  252.7559 397.35657 z"
           transform="matrix(0.3249963,0,0,0.3351106,-56.785278,-105.08814)" />
        <path
           transform="matrix(0.3249963,0,0,0.3351106,-50.785278,-105.08814)"
           d="M 252.7559 397.35657 A 2.8683915 2.6996624 0 1 1  247.01912,397.35657 A 2.8683915 2.6996624 0 1 1  252.7559 397.35657 z"
           sodipodi:ry="2.6996624"
           sodipodi:rx="2.8683915"
           sodipodi:cy="397.35657"
           sodipodi:cx="249.88751"
           id="path3472"
           style="fill:#000064;fill-opacity:1;stroke:#000064;stroke-width:3;stroke-miterlimit:4;stroke-dasharray:none;stroke-opacity:1"
           sodipodi:type="arc" />
      </g>
    </g>
    <text
       xml:space="preserve"
       style="font-size:14.6081171px;font-style:normal;font-variant:normal;font-weight:bold;font-stretch:normal;text-align:start;line-height:125%;writing-mode:lr-tb;text-anchor:start;fill:#000080;fill-opacity:1;stroke:none;stroke-width:1px;stroke-linecap:butt;stroke-linejoin:miter;stroke-opacity:1;font-family:Verdana"
       x="-0.9436444"
       y="18.145639"
       id="text5203"
       sodipodi:linespacing="125%"><tspan
         sodipodi:role="line"
         x="-0.9436444"
         y="18.145639"
         id="tspan5207">RX TX</tspan></text>
  </g>
</svg>
