<?xml version="1.0" encoding="UTF-8" standalone="no"?>
<!-- Created with Inkscape (http://www.inkscape.org/) -->

<svg
   xmlns:dc="http://purl.org/dc/elements/1.1/"
   xmlns:cc="http://creativecommons.org/ns#"
   xmlns:rdf="http://www.w3.org/1999/02/22-rdf-syntax-ns#"
   xmlns:svg="http://www.w3.org/2000/svg"
   xmlns="http://www.w3.org/2000/svg"
   xmlns:sodipodi="http://sodipodi.sourceforge.net/DTD/sodipodi-0.dtd"
   xmlns:inkscape="http://www.inkscape.org/namespaces/inkscape"
   width="48"
   height="48"
   id="svg2"
   sodipodi:version="0.32"
   inkscape:version="0.47pre4 r22446"
   sodipodi:docname="TSerialPortDriver.svg"
   inkscape:output_extension="org.inkscape.output.svg.inkscape"
   version="1.0"
   inkscape:export-filename="C:\HMI_SCADA\artwork\24x24\TSerialPortDriver.png"
   inkscape:export-xdpi="45"
   inkscape:export-ydpi="45">
  <defs
     id="defs4">
    <inkscape:perspective
       sodipodi:type="inkscape:persp3d"
       inkscape:vp_x="-50 : 600 : 1"
       inkscape:vp_y="0 : 1000 : 0"
       inkscape:vp_z="700 : 600 : 1"
       inkscape:persp3d-origin="300 : 400 : 1"
       id="perspective25" />
    <inkscape:perspective
       sodipodi:type="inkscape:persp3d"
       inkscape:vp_x="0 : 526.18109 : 1"
       inkscape:vp_y="0 : 1000 : 0"
       inkscape:vp_z="744.09448 : 526.18109 : 1"
       inkscape:persp3d-origin="372.04724 : 350.78739 : 1"
       id="perspective10" />
    <inkscape:perspective
       id="perspective2390"
       inkscape:persp3d-origin="372.04724 : 350.78739 : 1"
       inkscape:vp_z="744.09448 : 526.18109 : 1"
       inkscape:vp_y="0 : 1000 : 0"
       inkscape:vp_x="0 : 526.18109 : 1"
       sodipodi:type="inkscape:persp3d" />
    <inkscape:perspective
       id="perspective2410"
       inkscape:persp3d-origin="372.04724 : 350.78739 : 1"
       inkscape:vp_z="744.09448 : 526.18109 : 1"
       inkscape:vp_y="0 : 1000 : 0"
       inkscape:vp_x="0 : 526.18109 : 1"
       sodipodi:type="inkscape:persp3d" />
  </defs>
  <sodipodi:namedview
     id="base"
     pagecolor="#ffffff"
     bordercolor="#666666"
     borderopacity="1.0"
     inkscape:pageopacity="0.0"
     inkscape:pageshadow="2"
     inkscape:zoom="10.541667"
     inkscape:cx="9.7707514"
     inkscape:cy="11.144644"
     inkscape:document-units="px"
     inkscape:current-layer="layer1"
     showgrid="false"
     showguides="true"
     inkscape:guide-bbox="true"
     inkscape:snap-guide="true"
     inkscape:window-width="1268"
     inkscape:window-height="748"
     inkscape:window-x="0"
     inkscape:window-y="25"
     width="48px"
     height="48px"
     inkscape:window-maximized="1">
    <sodipodi:guide
       orientation="0,1"
       position="229.10067,746.63087"
       id="guide3487" />
  </sodipodi:namedview>
  <metadata
     id="metadata7">
    <rdf:RDF>
      <cc:Work
         rdf:about="">
        <dc:format>image/svg+xml</dc:format>
        <dc:type
           rdf:resource="http://purl.org/dc/dcmitype/StillImage" />
      </cc:Work>
      <cc:Work
         rdf:about="">
        <dc:format>image/svg+xml</dc:format>
        <dc:type
           rdf:resource="http://purl.org/dc/dcmitype/StillImage" />
      </cc:Work>
      <cc:Work
         rdf:about="">
        <dc:format>image/svg+xml</dc:format>
        <dc:type
           rdf:resource="http://purl.org/dc/dcmitype/StillImage" />
      </cc:Work>
    </rdf:RDF>
  </metadata>
  <g
     inkscape:label="Camada 1"
     inkscape:groupmode="layer"
     id="layer1">
    <g
       id="g2844"
       transform="translate(0,-0.76239851)">
      <path
         sodipodi:nodetypes="csccsccsccscc"
         id="path3450"
         d="m 7.3463969,21.119423 c -1.4347474,0.396352 -3.0813945,1.594313 -3.9345836,2.731002 -0.8917189,1.188014 -1.5279322,3.11065 -1.6411642,4.55859 0.2272084,3.013123 2.1994568,9.532543 2.1994537,9.532543 0,0 0.7846865,2.279532 1.7148082,3.125592 0.9301217,0.846066 1.3090022,1.307494 4.418517,1.921046 9.264006,0.237458 18.528698,0.174365 27.793143,0 3.109509,-0.613552 3.498914,-1.07498 4.429038,-1.921046 0.930123,-0.84606 1.714806,-3.125592 1.714806,-3.125592 -3e-6,0 1.866865,-6.51942 2.094073,-9.532543 0,-1.448488 -0.644061,-3.370576 -1.53578,-4.55859 -0.853196,-1.136689 -2.49984,-2.33465 -3.934587,-2.731002 -11.103715,-0.611503 -22.211094,-0.200281 -33.3177241,0 z"
         style="fill:#e1e1ff;fill-opacity:1;fill-rule:evenodd;stroke:#000064;stroke-width:1.54129827;stroke-miterlimit:4;stroke-opacity:1;stroke-dasharray:none" />
      <g
         style="fill:#000064;fill-opacity:1;stroke:#000064;stroke-opacity:1"
         transform="matrix(1.2752128,0,0,1.2752128,-3.4170756,1.394916)"
         id="g3171">
        <path
           sodipodi:type="arc"
           style="fill:#000064;fill-opacity:1;stroke:#000064;stroke-width:3;stroke-miterlimit:4;stroke-opacity:1;stroke-dasharray:none"
           id="path3456"
           sodipodi:cx="249.88751"
           sodipodi:cy="397.35657"
           sodipodi:rx="2.8683915"
           sodipodi:ry="2.6996624"
           d="m 252.7559,397.35657 c 0,1.49098 -1.28422,2.69966 -2.86839,2.69966 -1.58417,0 -2.86839,-1.20868 -2.86839,-2.69966 0,-1.49099 1.28422,-2.69967 2.86839,-2.69967 1.58417,0 2.86839,1.20868 2.86839,2.69967 z"
           transform="matrix(0.339785,0,0,0.3610216,-75.408028,-122.95434)" />
        <path
           transform="matrix(0.339785,0,0,0.3610216,-69.408028,-122.95434)"
           d="m 252.7559,397.35657 c 0,1.49098 -1.28422,2.69966 -2.86839,2.69966 -1.58417,0 -2.86839,-1.20868 -2.86839,-2.69966 0,-1.49099 1.28422,-2.69967 2.86839,-2.69967 1.58417,0 2.86839,1.20868 2.86839,2.69967 z"
           sodipodi:ry="2.6996624"
           sodipodi:rx="2.8683915"
           sodipodi:cy="397.35657"
           sodipodi:cx="249.88751"
           id="path3458"
           style="fill:#000064;fill-opacity:1;stroke:#000064;stroke-width:3;stroke-miterlimit:4;stroke-opacity:1;stroke-dasharray:none"
           sodipodi:type="arc" />
        <path
           sodipodi:type="arc"
           style="fill:#000064;fill-opacity:1;stroke:#000064;stroke-width:3;stroke-miterlimit:4;stroke-opacity:1;stroke-dasharray:none"
           id="path3460"
           sodipodi:cx="249.88751"
           sodipodi:cy="397.35657"
           sodipodi:rx="2.8683915"
           sodipodi:ry="2.6996624"
           d="m 252.7559,397.35657 c 0,1.49098 -1.28422,2.69966 -2.86839,2.69966 -1.58417,0 -2.86839,-1.20868 -2.86839,-2.69966 0,-1.49099 1.28422,-2.69967 2.86839,-2.69967 1.58417,0 2.86839,1.20868 2.86839,2.69967 z"
           transform="matrix(0.3397851,0,0,0.3610216,-63.408053,-122.9543)" />
        <path
           transform="matrix(0.339785,0,0,0.3610216,-57.408028,-122.95434)"
           d="m 252.7559,397.35657 c 0,1.49098 -1.28422,2.69966 -2.86839,2.69966 -1.58417,0 -2.86839,-1.20868 -2.86839,-2.69966 0,-1.49099 1.28422,-2.69967 2.86839,-2.69967 1.58417,0 2.86839,1.20868 2.86839,2.69967 z"
           sodipodi:ry="2.6996624"
           sodipodi:rx="2.8683915"
           sodipodi:cy="397.35657"
           sodipodi:cx="249.88751"
           id="path3462"
           style="fill:#000064;fill-opacity:1;stroke:#000064;stroke-width:3;stroke-miterlimit:4;stroke-opacity:1;stroke-dasharray:none"
           sodipodi:type="arc" />
        <path
           sodipodi:type="arc"
           style="fill:#000064;fill-opacity:1;stroke:#000064;stroke-width:3;stroke-miterlimit:4;stroke-opacity:1;stroke-dasharray:none"
           id="path3464"
           sodipodi:cx="249.88751"
           sodipodi:cy="397.35657"
           sodipodi:rx="2.8683915"
           sodipodi:ry="2.6996624"
           d="m 252.7559,397.35657 c 0,1.49098 -1.28422,2.69966 -2.86839,2.69966 -1.58417,0 -2.86839,-1.20868 -2.86839,-2.69966 0,-1.49099 1.28422,-2.69967 2.86839,-2.69967 1.58417,0 2.86839,1.20868 2.86839,2.69967 z"
           transform="matrix(0.339785,0,0,0.3610216,-51.408028,-122.95434)" />
        <g
           style="fill:#000064;fill-opacity:1;stroke:#000064;stroke-opacity:1"
           id="g3165"
           transform="translate(0,-0.4699653)">
          <path
             transform="matrix(0.339785,0,0,0.3610216,-72.408028,-115.48435)"
             d="m 252.7559,397.35657 c 0,1.49098 -1.28422,2.69966 -2.86839,2.69966 -1.58417,0 -2.86839,-1.20868 -2.86839,-2.69966 0,-1.49099 1.28422,-2.69967 2.86839,-2.69967 1.58417,0 2.86839,1.20868 2.86839,2.69967 z"
             sodipodi:ry="2.6996624"
             sodipodi:rx="2.8683915"
             sodipodi:cy="397.35657"
             sodipodi:cx="249.88751"
             id="path3466"
             style="fill:#000064;fill-opacity:1;stroke:#000064;stroke-width:3;stroke-miterlimit:4;stroke-opacity:1;stroke-dasharray:none"
             sodipodi:type="arc" />
          <path
             sodipodi:type="arc"
             style="fill:#000064;fill-opacity:1;stroke:#000064;stroke-width:3;stroke-miterlimit:4;stroke-opacity:1;stroke-dasharray:none"
             id="path3468"
             sodipodi:cx="249.88751"
             sodipodi:cy="397.35657"
             sodipodi:rx="2.8683915"
             sodipodi:ry="2.6996624"
             d="m 252.7559,397.35657 c 0,1.49098 -1.28422,2.69966 -2.86839,2.69966 -1.58417,0 -2.86839,-1.20868 -2.86839,-2.69966 0,-1.49099 1.28422,-2.69967 2.86839,-2.69967 1.58417,0 2.86839,1.20868 2.86839,2.69967 z"
             transform="matrix(0.3249963,0,0,0.3351106,-62.785278,-105.08814)" />
          <path
             transform="matrix(0.3249963,0,0,0.3351106,-56.785278,-105.08814)"
             d="m 252.7559,397.35657 c 0,1.49098 -1.28422,2.69966 -2.86839,2.69966 -1.58417,0 -2.86839,-1.20868 -2.86839,-2.69966 0,-1.49099 1.28422,-2.69967 2.86839,-2.69967 1.58417,0 2.86839,1.20868 2.86839,2.69967 z"
             sodipodi:ry="2.6996624"
             sodipodi:rx="2.8683915"
             sodipodi:cy="397.35657"
             sodipodi:cx="249.88751"
             id="path3470"
             style="fill:#000064;fill-opacity:1;stroke:#000064;stroke-width:3;stroke-miterlimit:4;stroke-opacity:1;stroke-dasharray:none"
             sodipodi:type="arc" />
          <path
             sodipodi:type="arc"
             style="fill:#000064;fill-opacity:1;stroke:#000064;stroke-width:3;stroke-miterlimit:4;stroke-opacity:1;stroke-dasharray:none"
             id="path3472"
             sodipodi:cx="249.88751"
             sodipodi:cy="397.35657"
             sodipodi:rx="2.8683915"
             sodipodi:ry="2.6996624"
             d="m 252.7559,397.35657 c 0,1.49098 -1.28422,2.69966 -2.86839,2.69966 -1.58417,0 -2.86839,-1.20868 -2.86839,-2.69966 0,-1.49099 1.28422,-2.69967 2.86839,-2.69967 1.58417,0 2.86839,1.20868 2.86839,2.69967 z"
             transform="matrix(0.3249963,0,0,0.3351106,-50.785278,-105.08814)" />
        </g>
      </g>
      <text
         sodipodi:linespacing="125%"
         id="text5203"
         y="16.145639"
         x="-0.9436444"
         style="font-size:14.6081171px;font-style:normal;font-variant:normal;font-weight:bold;font-stretch:normal;text-align:start;line-height:125%;writing-mode:lr-tb;text-anchor:start;fill:#000080;fill-opacity:1;stroke:none;font-family:Verdana"
         xml:space="preserve"><tspan
           id="tspan5207"
           y="16.145639"
           x="-0.9436444"
           sodipodi:role="line">RX TX</tspan></text>
    </g>
  </g>
</svg>
