<?xml version="1.0" encoding="UTF-8" standalone="no"?>
<!-- Created with Inkscape (http://www.inkscape.org/) -->

<svg
   xmlns:dc="http://purl.org/dc/elements/1.1/"
   xmlns:cc="http://creativecommons.org/ns#"
   xmlns:rdf="http://www.w3.org/1999/02/22-rdf-syntax-ns#"
   xmlns:svg="http://www.w3.org/2000/svg"
   xmlns="http://www.w3.org/2000/svg"
   xmlns:xlink="http://www.w3.org/1999/xlink"
   xmlns:sodipodi="http://sodipodi.sourceforge.net/DTD/sodipodi-0.dtd"
   xmlns:inkscape="http://www.inkscape.org/namespaces/inkscape"
   width="48"
   height="48"
   id="svg2"
   sodipodi:version="0.32"
   inkscape:version="0.48+devel r10838"
   version="1.0"
   sodipodi:docname="TWinCCUserManagement.svg"
   inkscape:output_extension="org.inkscape.output.svg.inkscape"
   inkscape:export-filename="C:\HMI_SCADA\artwork\24x24\TPIPE.png"
   inkscape:export-xdpi="45"
   inkscape:export-ydpi="45">
  <defs
     id="defs4">
    <linearGradient
       id="linearGradient4522">
      <stop
         style="stop-color:#5353ff;stop-opacity:1;"
         offset="0"
         id="stop4524" />
      <stop
         id="stop4530"
         offset="0.68526679"
         style="stop-color:#9191ff;stop-opacity:1;" />
      <stop
         style="stop-color:#9191ff;stop-opacity:0;"
         offset="1"
         id="stop4526" />
    </linearGradient>
    <marker
       inkscape:stockid="TriangleOutM"
       orient="auto"
       refY="0.0"
       refX="0.0"
       id="TriangleOutM"
       style="overflow:visible">
      <path
         id="path3348"
         d="M 5.77,0.0 L -2.88,5.0 L -2.88,-5.0 L 5.77,0.0 z "
         style="fill-rule:evenodd;stroke:#000000;stroke-width:1.0pt;marker-start:none"
         transform="scale(0.4)" />
    </marker>
    <marker
       inkscape:stockid="TriangleOutL"
       orient="auto"
       refY="0.0"
       refX="0.0"
       id="TriangleOutL"
       style="overflow:visible">
      <path
         id="path3345"
         d="M 5.77,0.0 L -2.88,5.0 L -2.88,-5.0 L 5.77,0.0 z "
         style="fill-rule:evenodd;stroke:#000000;stroke-width:1.0pt;marker-start:none"
         transform="scale(0.8)" />
    </marker>
    <inkscape:perspective
       sodipodi:type="inkscape:persp3d"
       inkscape:vp_x="-50 : 600 : 1"
       inkscape:vp_y="0 : 1000 : 0"
       inkscape:vp_z="700 : 600 : 1"
       inkscape:persp3d-origin="300 : 400 : 1"
       id="perspective22" />
    <inkscape:perspective
       sodipodi:type="inkscape:persp3d"
       inkscape:vp_x="-50 : 600 : 1"
       inkscape:vp_y="0 : 1000 : 0"
       inkscape:vp_z="700 : 600 : 1"
       inkscape:persp3d-origin="300 : 400 : 1"
       id="perspective21" />
    <linearGradient
       id="linearGradient6071">
      <stop
         style="stop-color:#b9b9ff;stop-opacity:1;"
         offset="0"
         id="stop6073" />
      <stop
         style="stop-color:#000064;stop-opacity:1;"
         offset="1"
         id="stop6075" />
    </linearGradient>
    <inkscape:perspective
       sodipodi:type="inkscape:persp3d"
       inkscape:vp_x="0 : 526.18109 : 1"
       inkscape:vp_y="0 : 1000 : 0"
       inkscape:vp_z="744.09448 : 526.18109 : 1"
       inkscape:persp3d-origin="372.04724 : 350.78739 : 1"
       id="perspective10" />
    <inkscape:perspective
       id="perspective2390"
       inkscape:persp3d-origin="372.04724 : 350.78739 : 1"
       inkscape:vp_z="744.09448 : 526.18109 : 1"
       inkscape:vp_y="0 : 1000 : 0"
       inkscape:vp_x="0 : 526.18109 : 1"
       sodipodi:type="inkscape:persp3d" />
    <radialGradient
       inkscape:collect="always"
       xlink:href="#linearGradient6071"
       id="radialGradient6077"
       cx="18.935173"
       cy="17.851858"
       fx="18.935173"
       fy="17.851858"
       r="2.8282884"
       gradientTransform="matrix(1,0,0,0.9836183,0,0.3096707)"
       gradientUnits="userSpaceOnUse" />
    <inkscape:perspective
       id="perspective2407"
       inkscape:persp3d-origin="300 : 400 : 1"
       inkscape:vp_z="700 : 600 : 1"
       inkscape:vp_y="0 : 1000 : 0"
       inkscape:vp_x="-50 : 600 : 1"
       sodipodi:type="inkscape:persp3d" />
    <linearGradient
       inkscape:collect="always"
       xlink:href="#linearGradient4522"
       id="linearGradient4528"
       x1="28.189873"
       y1="22.509975"
       x2="16.23942"
       y2="22.509975"
       gradientUnits="userSpaceOnUse" />
    <linearGradient
       id="linearGradient2576"
       y2="32.161999"
       gradientUnits="userSpaceOnUse"
       x2="40.938"
       gradientTransform="matrix(0.4858,0,0,0.56676,-0.65766,-4.7558)"
       y1="32.161999"
       x1="6.7268">
      <stop
         id="stop2413"
         style="stop-color:#fee7b1"
         offset="0" />
      <stop
         id="stop2419"
         style="stop-color:#ebd4b4"
         offset=".25797" />
      <stop
         id="stop2421"
         style="stop-color:#c8a775"
         offset=".50797" />
      <stop
         id="stop2423"
         style="stop-color:#b0935b"
         offset=".74010" />
      <stop
         id="stop2415"
         style="stop-color:#fcebbf"
         offset="1" />
    </linearGradient>
    <linearGradient
       id="linearGradient2573"
       y2="36.126999"
       gradientUnits="userSpaceOnUse"
       x2="30.875"
       gradientTransform="matrix(0.45413,0,0,0.50788,0.10759,-1.9931)"
       y1="25.002001"
       x1="10.907">
      <stop
         id="stop9847"
         style="stop-color:#fff"
         offset="0" />
      <stop
         id="stop9849"
         style="stop-color:#fff;stop-opacity:.49485"
         offset="1" />
    </linearGradient>
    <linearGradient
       id="linearGradient2570"
       y2="17"
       gradientUnits="userSpaceOnUse"
       x2="24.75"
       gradientTransform="matrix(0.47059,0,0,0.80748,-0.29408,-6.1887)"
       y1="21"
       x1="24.875">
      <stop
         id="stop5883"
         style="stop-color:#d6c8a7"
         offset="0" />
      <stop
         id="stop5885"
         style="stop-color:#d0bd99"
         offset="1" />
    </linearGradient>
    <linearGradient
       id="linearGradient2567"
       y2="18.038"
       gradientUnits="userSpaceOnUse"
       x2="21.941999"
       gradientTransform="matrix(0.45455,0,0,0.25159,0.090945,5.0971)"
       y1="21.551001"
       x1="21.941999">
      <stop
         id="stop12073"
         style="stop-color:#fff"
         offset="0" />
      <stop
         id="stop12075"
         style="stop-color:#fff;stop-opacity:0"
         offset="1" />
    </linearGradient>
    <filter
       style="color-interpolation-filters:sRGB"
       id="filter5957"
       height="1.1647"
       width="1.9881999"
       y="-0.082353003"
       x="-0.49412">
      <feGaussianBlur
         id="feGaussianBlur5959"
         stdDeviation="0.69878785" />
    </filter>
    <radialGradient
       id="radialGradient2563"
       xlink:href="#linearGradient6075"
       gradientUnits="userSpaceOnUse"
       cy="20.312"
       cx="15.938"
       gradientTransform="matrix(0.75472,0,0,0.35667,-5.5283,1.0326)"
       r="3.3125" />
    <linearGradient
       id="linearGradient6075">
      <stop
         id="stop6077"
         offset="0" />
      <stop
         id="stop6079"
         style="stop-opacity:0"
         offset="1" />
    </linearGradient>
    <radialGradient
       id="radialGradient2560"
       xlink:href="#linearGradient6075"
       gradientUnits="userSpaceOnUse"
       cy="20.312"
       cx="15.938"
       gradientTransform="matrix(0.75472,0,0,0.35667,3.4717,1.0326)"
       r="3.3125" />
    <linearGradient
       id="linearGradient3349">
      <stop
         id="stop3351"
         offset="0" />
      <stop
         id="stop3353"
         style="stop-opacity:0"
         offset="1" />
    </linearGradient>
    <linearGradient
       id="linearGradient2557"
       y2="17.469999"
       gradientUnits="userSpaceOnUse"
       x2="27.191999"
       gradientTransform="matrix(0.40937,0,0,0.44567,1.1465,-1.6796)"
       y1="2.9137001"
       x1="10.651">
      <stop
         id="stop10593"
         style="stop-color:#cad0c6"
         offset="0" />
      <stop
         id="stop10599"
         style="stop-color:#eaece9"
         offset=".5" />
      <stop
         id="stop10595"
         style="stop-color:#c5cbc0"
         offset="1" />
    </linearGradient>
    <linearGradient
       id="linearGradient2580"
       y2="14.85"
       xlink:href="#linearGradient6075"
       gradientUnits="userSpaceOnUse"
       x2="33.004002"
       gradientTransform="translate(1.6824,1.125)"
       y1="14.85"
       x1="35.005001" />
    <linearGradient
       id="linearGradient3360">
      <stop
         id="stop3362"
         offset="0" />
      <stop
         id="stop3364"
         style="stop-opacity:0"
         offset="1" />
    </linearGradient>
    <filter
       style="color-interpolation-filters:sRGB"
       id="filter6251"
       height="1.0951999"
       width="1.4849"
       y="-0.047579002"
       x="-0.24243">
      <feGaussianBlur
         id="feGaussianBlur6253"
         stdDeviation="0.24444548" />
    </filter>
    <linearGradient
       id="linearGradient2578"
       y2="13.789"
       xlink:href="#linearGradient6075"
       gradientUnits="userSpaceOnUse"
       x2="35.021"
       gradientTransform="translate(-19.533,1.7437)"
       y1="13.789"
       x1="32.127998" />
    <linearGradient
       id="linearGradient3369">
      <stop
         id="stop3371"
         offset="0" />
      <stop
         id="stop3373"
         style="stop-opacity:0"
         offset="1" />
    </linearGradient>
    <filter
       style="color-interpolation-filters:sRGB"
       id="filter3375"
       height="1.0951999"
       width="1.4849"
       y="-0.047579002"
       x="-0.24243">
      <feGaussianBlur
         id="feGaussianBlur3377"
         stdDeviation="0.24444548" />
    </filter>
    <filter
       style="color-interpolation-filters:sRGB"
       id="filter5745">
      <feGaussianBlur
         id="feGaussianBlur5747"
         stdDeviation="0.8362597" />
    </filter>
  </defs>
  <sodipodi:namedview
     id="base"
     pagecolor="#ffffff"
     bordercolor="#666666"
     borderopacity="1.0"
     inkscape:pageopacity="0.0"
     inkscape:pageshadow="2"
     inkscape:zoom="10.854167"
     inkscape:cx="24"
     inkscape:cy="24"
     inkscape:document-units="px"
     inkscape:current-layer="layer1"
     showgrid="false"
     inkscape:window-width="1366"
     inkscape:window-height="694"
     inkscape:window-x="0"
     inkscape:window-y="0"
     showguides="true"
     inkscape:guide-bbox="true"
     width="0px"
     height="0px"
     fit-margin-top="0"
     fit-margin-left="0"
     fit-margin-right="0"
     fit-margin-bottom="0"
     inkscape:window-maximized="1" />
  <metadata
     id="metadata7">
    <rdf:RDF>
      <cc:Work
         rdf:about="">
        <dc:format>image/svg+xml</dc:format>
        <dc:type
           rdf:resource="http://purl.org/dc/dcmitype/StillImage" />
      </cc:Work>
      <cc:Work
         rdf:about="">
        <dc:format>image/svg+xml</dc:format>
        <dc:type
           rdf:resource="http://purl.org/dc/dcmitype/StillImage" />
      </cc:Work>
      <cc:Work
         rdf:about="">
        <dc:format>image/svg+xml</dc:format>
        <dc:type
           rdf:resource="http://purl.org/dc/dcmitype/StillImage" />
      </cc:Work>
    </rdf:RDF>
  </metadata>
  <g
     inkscape:label="Camada 1"
     inkscape:groupmode="layer"
     id="layer1">
    <g
       transform="matrix(1.6158098,0,0,1.6158098,-3.2316196,0.603688)"
       id="layer1-3">
      <path
         inkscape:connector-curvature="0"
         id="rect1314"
         style="fill:url(#linearGradient2576);fill-rule:evenodd;stroke:#a2824e;stroke-linecap:round;stroke-linejoin:round"
         d="m 3.5858,7.0018 c 4.8977,-0.72404 9.8475,-0.61163 14.828,0 0.60151,0 1.0857,0.52348 1.0857,1.1737 l 0,11.698 c 0,0.65024 -0.5155,1.0797 -1.0857,1.1737 -5.164,0.60626 -9.5919,0.60147 -14.828,0 -0.6955,-0.22 -1.086,-0.524 -1.086,-1.175 l 0,-11.698 c 0,-0.65024 0.48424,-1.1737 1.0857,-1.1737 z" />
      <path
         inkscape:connector-curvature="0"
         id="rect6903"
         style="opacity:0.38000039;fill:none;stroke:url(#linearGradient2573);stroke-linecap:round;stroke-linejoin:round;stroke-opacity:0.60109002"
         d="m 4.0857,8.5 13.829,0 c 0.32446,0 0.58567,0.26635 0.58567,0.5972 l 0,10.396 c 0,0.33085 -0.23192,0.48359 -0.58567,0.5972 -4.5217,0.54696 -8.9848,0.5457 -13.829,0 C 3.76124,19.97679 3.50003,19.82405 3.50003,19.4932 l 0,-10.396 C 3.50003,8.76635 3.76124,8.5 4.0857,8.5 z" />
      <path
         inkscape:connector-curvature="0"
         id="rect1460"
         style="fill:url(#linearGradient2570);fill-rule:evenodd"
         d="m 3.7795,7.5385 c 4.8137,-0.78635 9.6274,-0.64629 14.441,0 0.4318,0 0.77943,0.386 0.77943,0.86548 l 0,1.499 c 0,0.47947 -0.34763,0.86548 -0.77943,0.86548 -5.0234,0.3715 -9.6454,0.23891 -14.441,0 -0.4318,0 -0.77943,-0.386 -0.77943,-0.86548 l 0,-1.499 c 0,-0.47947 0.34762,-0.86548 0.77943,-0.86548 z" />
      <path
         inkscape:connector-curvature="0"
         id="rect1593"
         style="opacity:0.6;fill:none;stroke:url(#linearGradient2567);stroke-linecap:round;stroke-linejoin:round"
         d="m 4.0456,9.5 13.909,0 c 0.30223,0 0.54554,0.1293 0.54554,0.2899 l 0,0.17499 c 0,0.1606 -0.24331,0.2899 -0.54554,0.2899 -4.593,0.31718 -9.238,0.33659 -13.909,0 -0.30223,0 -0.54554,-0.1293 -0.54554,-0.2899 l 0,-0.17499 C 3.50006,9.6293 3.74337,9.5 4.0456,9.5 z" />
      <rect
         id="rect5887"
         style="opacity:0.2;fill:#ffffff;fill-rule:evenodd;filter:url(#filter5957)"
         transform="matrix(0.9234,0,0,0.57774,-8.227,-3.3565)"
         rx="1.6077"
         ry="1.6077"
         height="16.971001"
         width="2.8283999"
         y="23.226"
         x="14.594" />
      <path
         inkscape:connector-curvature="0"
         id="path6073"
         style="opacity:0.3;fill:url(#radialGradient2563);fill-rule:evenodd"
         d="M 9,8.2774 C 9,8.9299 7.8807,9.4589 6.5,9.4589 5.1193,9.4589 4,8.92994 4,8.2774 4,7.6249 5.1193,7.0959 6.5,7.0959 7.8807,7.0959 9,7.62486 9,8.2774 z" />
      <path
         inkscape:connector-curvature="0"
         id="path6083"
         style="opacity:0.3;fill:url(#radialGradient2560);fill-rule:evenodd"
         d="m 18,8.2774 c 0,0.6525 -1.1193,1.1815 -2.5,1.1815 -1.3807,0 -2.5,-0.52896 -2.5,-1.1815 0,-0.6525 1.1193,-1.1815 2.5,-1.1815 1.3807,0 2.5,0.52896 2.5,1.1815 z" />
      <path
         inkscape:connector-curvature="0"
         id="path2086"
         style="fill:url(#linearGradient2557);fill-rule:evenodd;stroke:#888a85"
         d="m 5.5023,8.1969 0,-2.5558 c 0,-3.5075 2.1522,-5.1738 5.4773,-5.13 3.3431,0.043803 5.5183,1.5812 5.5183,5.13 l 0,2.6673 c 0,0.87094 -2.2477,0.98179 -2.2477,0 l 0,-1.7759 c 0,-0.89134 0.2327,-3.7757 -3.2471,-3.7757 -3.4511,0 -3.1997,2.9021 -3.1863,3.7721 l 0,1.6831 c 0,1.0494 -2.3144,1.0449 -2.3144,-0.015009 z" />
      <path
         inkscape:connector-curvature="0"
         id="rect1345"
         style="opacity:0.18235001;fill:url(#linearGradient2580);fill-rule:evenodd;filter:url(#filter6251)"
         d="m 34.687,10.837 1.2639,0.125 c 0.92724,2.8227 0.73605,9.5104 0.73605,9.5104 -0.0625,1.125 -2.0312,0.53125 -2,0 l 0,-9.6354 z"
         transform="matrix(0.40937,0,0,0.44567,1.1465,-0.82114)" />
      <path
         inkscape:connector-curvature="0"
         id="path6332"
         style="opacity:0.14118;fill:url(#linearGradient2578);fill-rule:evenodd;filter:url(#filter6251)"
         d="m 12.927,11.544 0.37172,0.1692 c 1.7203,1.055 2.1735,9.3778 2.1735,9.3778 -0.0625,1.125 -2.0312,0.53125 -2,0 0,0 0.37822,-6.8706 -0.54525,-9.547 z"
         transform="matrix(-0.40937,0,0,0.44567,13.042,-1.0969)" />
      <path
         inkscape:connector-curvature="0"
         id="path5675"
         style="opacity:0.62352995;fill:none;stroke:#ffffff;stroke-width:4.42129993;stroke-linecap:round;filter:url(#filter5745)"
         d="m 13.877,17.722 0.125,-7.5 c 0,-9.8764 18.688,-10.676 18.688,0.875 l 0,6.875"
         transform="matrix(0.45915,0,0,0.44567,-0.021657,0.24621)" />
    </g>
    <text
       xml:space="preserve"
       style="font-size:15.79915428px;font-style:normal;font-variant:normal;font-weight:bold;font-stretch:normal;text-align:start;line-height:125%;letter-spacing:0px;word-spacing:0px;writing-mode:lr-tb;text-anchor:start;fill:#800000;fill-opacity:1;stroke:none;font-family:Sans;-inkscape-font-specification:Sans Bold"
       x="-29.369486"
       y="41.458923"
       id="text3269"
       sodipodi:linespacing="125%"
       transform="matrix(0.70710678,-0.70710678,0.70710678,0.70710678,0,0)"><tspan
         sodipodi:role="line"
         id="tspan3271"
         x="-29.369486"
         y="41.458923">WinCC</tspan></text>
  </g>
</svg>
