<?xml version="1.0" encoding="UTF-8" standalone="no"?>
<!-- Created with Inkscape (http://www.inkscape.org/) -->

<svg
   xmlns:dc="http://purl.org/dc/elements/1.1/"
   xmlns:cc="http://creativecommons.org/ns#"
   xmlns:rdf="http://www.w3.org/1999/02/22-rdf-syntax-ns#"
   xmlns:svg="http://www.w3.org/2000/svg"
   xmlns="http://www.w3.org/2000/svg"
   xmlns:sodipodi="http://sodipodi.sourceforge.net/DTD/sodipodi-0.dtd"
   xmlns:inkscape="http://www.inkscape.org/namespaces/inkscape"
   width="86"
   height="86"
   id="svg3135"
   version="1.1"
   inkscape:version="0.48+devel r11556"
   sodipodi:docname="blacklogo64_2.svg"
   inkscape:export-filename="/var/www/ps/images/blacklogo64_2.png"
   inkscape:export-xdpi="397.67441"
   inkscape:export-ydpi="397.67441">
  <defs
     id="defs3137">
    <inkscape:perspective
       sodipodi:type="inkscape:persp3d"
       inkscape:vp_x="0 : 526.18109 : 1"
       inkscape:vp_y="0 : 1000 : 0"
       inkscape:vp_z="744.09448 : 526.18109 : 1"
       inkscape:persp3d-origin="372.04724 : 350.78739 : 1"
       id="perspective3143" />
    <inkscape:perspective
       id="perspective3086"
       inkscape:persp3d-origin="0.5 : 0.33333333 : 1"
       inkscape:vp_z="1 : 0.5 : 1"
       inkscape:vp_y="0 : 1000 : 0"
       inkscape:vp_x="0 : 0.5 : 1"
       sodipodi:type="inkscape:persp3d" />
  </defs>
  <sodipodi:namedview
     id="base"
     pagecolor="#ffffff"
     bordercolor="#666666"
     borderopacity="1.0"
     inkscape:pageopacity="0.0"
     inkscape:pageshadow="2"
     inkscape:zoom="3.4407895"
     inkscape:cx="23.944719"
     inkscape:cy="37.061677"
     inkscape:document-units="px"
     inkscape:current-layer="layer1"
     showgrid="false"
     inkscape:window-width="1366"
     inkscape:window-height="694"
     inkscape:window-x="0"
     inkscape:window-y="0"
     inkscape:window-maximized="1"
     showguides="true"
     inkscape:guide-bbox="true"
     width="0px"
     height="0px"
     fit-margin-top="0"
     fit-margin-left="0"
     fit-margin-right="0"
     fit-margin-bottom="0" />
  <metadata
     id="metadata3140">
    <rdf:RDF>
      <cc:Work
         rdf:about="">
        <dc:format>image/svg+xml</dc:format>
        <dc:type
           rdf:resource="http://purl.org/dc/dcmitype/StillImage" />
        <dc:title></dc:title>
      </cc:Work>
    </rdf:RDF>
  </metadata>
  <g
     inkscape:label="Camada 1"
     inkscape:groupmode="layer"
     id="layer1"
     transform="translate(0,-966.36218)">
    <rect
       y="966.36218"
       x="-3.3886718e-06"
       height="86"
       width="86"
       id="rect4500"
       style="fill:#000000;fill-opacity:1;stroke:none"
       inkscape:export-xdpi="397.67441"
       inkscape:export-ydpi="397.67441" />
    <g
       id="g964"
       transform="translate(0,-4.3257222)"
       inkscape:export-xdpi="397.67441"
       inkscape:export-ydpi="397.67441">
      <g
         id="g4502"
         transform="matrix(0.05768126,0,0,0.05771112,28.771372,984.52208)">
        <g
           id="g4504"
           transform="matrix(1.5106173,0,0,1.5106173,-367.65621,-213.27183)">
          <rect
             style="fill:#000000;fill-opacity:1;stroke:#ffffff;stroke-width:36.28419113;stroke-miterlimit:4;stroke-opacity:1;stroke-dasharray:none"
             id="rect4506"
             width="841.66357"
             height="608.30994"
             x="-14.155029"
             y="113.5195"
             rx="58.11367"
             ry="58.11367" />
          <rect
             ry="0"
             rx="0"
             y="184.66473"
             x="73.807617"
             height="466.0195"
             width="665.7384"
             id="rect4508"
             style="fill:#000000;fill-opacity:1;stroke:#ffffff;stroke-width:36.28419113;stroke-miterlimit:4;stroke-opacity:1;stroke-dasharray:none" />
          <path
             inkscape:connector-curvature="0"
             sodipodi:nodetypes="ccccccccc"
             id="path4510"
             d="m 75.158717,650.15994 0,-190.70885 219.217563,58.44946 0,-59.16717 221.90932,59.16717 0,-59.16717 221.90932,59.16717 0,132.97715 -663.036203,-0.71776 z"
             style="fill:#ffffff;fill-opacity:1;stroke:none" />
          <rect
             ry="0"
             rx="0"
             y="394.49323"
             x="632.32068"
             height="124.54802"
             width="57.48365"
             id="rect4512"
             style="fill:#ffffff;fill-opacity:1;stroke:none" />
        </g>
        <path
           inkscape:connector-curvature="0"
           style="fill:#ffffff;fill-opacity:1;stroke:#000000;stroke-width:2.10813546px;stroke-linecap:butt;stroke-linejoin:miter;stroke-opacity:1"
           d="m 633.81008,360.05197 -21.79355,-56.7183 c -10.27358,-26.73727 -59.2672,-12.96287 -74.41195,-42.97339 -15.14475,-30.01052 12.98003,-115.03301 12.98003,-115.03301 0,0 13.18953,62.75756 30.67816,84.05248 17.48863,21.29493 57.53557,16.87979 64.84477,39.36707 7.3092,22.48728 -12.29746,91.30515 -12.29746,91.30515 z"
           id="path4514"
           sodipodi:nodetypes="cszczzc" />
      </g>
      <g
         id="g4516"
         transform="matrix(0.19618315,0,0,0.19628471,-41.141732,943.1738)"
         style="fill:#ffffff">
        <path
           inkscape:connector-curvature="0"
           style="font-size:485.49575806px;font-style:normal;font-variant:normal;font-weight:bold;font-stretch:normal;text-align:start;line-height:80.00000119%;letter-spacing:0px;word-spacing:0px;writing-mode:lr-tb;text-anchor:start;fill:#ffffff;fill-opacity:1;stroke:none;font-family:BankGothic Md BT Medium;-inkscape-font-specification:'BankGothic Md BT Medium, Bold'"
           d="m 243.66007,498.41007 -19.35258,0 0,9.53642 19.35258,0 c 1.4931,2e-5 2.50798,-0.20433 3.04462,-0.61306 0.5599,-0.43139 0.83986,-1.18066 0.83989,-2.24786 l 0,-3.84863 c -3e-5,-1.04444 -0.27999,-1.77103 -0.83989,-2.17977 -0.53664,-0.43137 -1.55152,-0.64708 -3.04462,-0.6471 m -27.82152,29.76726 0,-36 31.63605,0 c 2.93958,5e-5 5.06264,0.55632 6.3692,1.66887 1.32978,1.08992 1.99469,2.86097 1.99475,5.31316 l 0,8.03784 c -6e-5,2.42954 -0.66497,4.20059 -1.99475,5.31315 -1.30656,1.08989 -3.42962,1.63482 -6.3692,1.63481 l -23.16711,0 0,14.03217 -8.46894,0"
           id="path4518" />
        <path
           inkscape:connector-curvature="0"
           style="font-size:485.49575806px;font-style:normal;font-variant:normal;font-weight:bold;font-stretch:normal;text-align:start;line-height:80.00000119%;letter-spacing:0px;word-spacing:0px;writing-mode:lr-tb;text-anchor:start;fill:#ffffff;fill-opacity:1;stroke:none;font-family:BankGothic Md BT Medium;-inkscape-font-specification:'BankGothic Md BT Medium, Bold'"
           d="m 247.47984,528.17733 14.81715,-24.96431 5.85192,0 15.04777,24.96431 -6.83203,0 -3.14216,-5.47716 -16.51796,0 -3.14216,5.47716 -6.08253,0 m 11.81913,-10.03184 11.44439,0 -5.82308,-10.4066 -5.62131,10.4066"
           id="path4520" />
        <path
           inkscape:connector-curvature="0"
           style="font-size:485.49575806px;font-style:normal;font-variant:normal;font-weight:bold;font-stretch:normal;text-align:start;line-height:80.00000119%;letter-spacing:0px;word-spacing:0px;writing-mode:lr-tb;text-anchor:start;fill:#ffffff;fill-opacity:1;stroke:none;font-family:BankGothic Md BT Medium;-inkscape-font-specification:'BankGothic Md BT Medium, Bold'"
           d="m 308.5139,507.68122 -17.18099,0 0,5.27537 16.25852,0 c 2.55597,2e-5 4.27599,0.41321 5.16006,1.23958 0.884,0.80717 1.32602,2.35422 1.32604,4.64117 l 0,3.43042 c -2e-5,2.28696 -0.45165,3.84362 -1.35487,4.67 -0.90328,0.82639 -2.6137,1.23957 -5.13123,1.23957 l -16.20087,0 c -2.57523,0 -4.32407,-0.41318 -5.24653,-1.23957 -0.90326,-0.82638 -1.35489,-2.38304 -1.35489,-4.67 l 0,-0.69185 5.41951,-1.00894 0,2.94036 18.3629,0 0,-5.70777 -16.17203,0 c -2.55602,10e-6 -4.28565,-0.41318 -5.1889,-1.23956 -0.90324,-0.8456 -1.35488,-2.40226 -1.35487,-4.67001 l 0,-2.79623 c -10e-6,-2.2485 0.45163,-3.78595 1.35487,-4.61235 0.90325,-0.84557 2.63288,-1.26837 5.1889,-1.26839 l 14.81715,0 c 2.51755,2e-5 4.23757,0.4036 5.16007,1.21073 0.94165,0.78797 1.41249,2.1909 1.41253,4.20878 l 0,0.60536 -5.27537,1.12426 0,-2.68093"
           id="path4522" />
        <path
           inkscape:connector-curvature="0"
           style="font-size:485.49575806px;font-style:normal;font-variant:normal;font-weight:bold;font-stretch:normal;text-align:start;line-height:80.00000119%;letter-spacing:0px;word-spacing:0px;writing-mode:lr-tb;text-anchor:start;fill:#ffffff;fill-opacity:1;stroke:none;font-family:BankGothic Md BT Medium;-inkscape-font-specification:'BankGothic Md BT Medium, Bold'"
           d="m 342.53692,507.79654 -16.40266,0 0,15.59548 16.40266,0 0,-5.30419 6.14018,1.23957 0,2.94036 c -3e-5,2.26775 -0.45166,3.82441 -1.35488,4.67 -0.90328,0.82639 -2.63291,1.23957 -5.18888,1.23957 l -15.5955,0 c -2.51757,0 -4.22799,-0.41318 -5.13123,-1.23957 -0.90325,-0.82638 -1.35489,-2.38304 -1.35487,-4.67 l 0,-13.174 c -2e-5,-2.26772 0.442,-3.81477 1.32605,-4.64117 0.90324,-0.82636 2.62325,-1.23955 5.16005,-1.23957 l 15.5955,0 c 2.5752,2e-5 4.30482,0.41321 5.18888,1.23957 0.90322,0.8264 1.35485,2.37345 1.35488,4.64117 l 0,2.42147 -6.14018,0.89365 0,-4.61234"
           id="path4524" />
        <path
           inkscape:connector-curvature="0"
           style="font-size:485.49575806px;font-style:normal;font-variant:normal;font-weight:bold;font-stretch:normal;text-align:start;line-height:80.00000119%;letter-spacing:0px;word-spacing:0px;writing-mode:lr-tb;text-anchor:start;fill:#ffffff;fill-opacity:1;stroke:none;font-family:BankGothic Md BT Medium;-inkscape-font-specification:'BankGothic Md BT Medium, Bold'"
           d="m 349.866,528.17733 14.81715,-24.96431 5.85192,0 15.04777,24.96431 -6.83203,0 -3.14216,-5.47716 -16.51796,0 -3.14216,5.47716 -6.08253,0 m 11.81914,-10.03184 11.44438,0 -5.82309,-10.4066 -5.62129,10.4066"
           id="path4526" />
        <path
           inkscape:connector-curvature="0"
           style="font-size:485.49575806px;font-style:normal;font-variant:normal;font-weight:bold;font-stretch:normal;text-align:start;line-height:80.00000119%;letter-spacing:0px;word-spacing:0px;writing-mode:lr-tb;text-anchor:start;fill:#ffffff;fill-opacity:1;stroke:none;font-family:BankGothic Md BT Medium;-inkscape-font-specification:'BankGothic Md BT Medium, Bold'"
           d="m 387.83833,528.17733 0,-24.96431 6.14018,0 0,20.29431 19.57364,0 0,4.67 -25.71382,0"
           id="path4528" />
        <path
           inkscape:connector-curvature="0"
           style="font-size:485.49575806px;font-style:normal;font-variant:normal;font-weight:bold;font-stretch:normal;text-align:start;line-height:80.00000119%;letter-spacing:0px;word-spacing:0px;writing-mode:lr-tb;text-anchor:start;fill:#ffffff;fill-opacity:1;stroke:none;font-family:BankGothic Md BT Medium;-inkscape-font-specification:'BankGothic Md BT Medium, Bold'"
           d="m 448.08279,498.46273 -23.58084,0 0,7.73534 22.45633,0 c 3.52118,2e-5 5.89517,0.60204 7.12196,1.80605 1.24941,1.20404 1.87416,3.44172 1.87419,6.71304 l 0,4.94107 c -3e-5,3.27134 -0.62478,5.50903 -1.87419,6.71305 -1.22679,1.20403 -3.60078,1.80605 -7.12196,1.80605 l -22.25189,0 c -3.52123,0 -5.90657,-0.60202 -7.15603,-1.80605 -1.22676,-1.20402 -1.84013,-3.44171 -1.84012,-6.71305 l 0,-0.9882 7.39457,-1.53344 0,4.25954 25.45506,0 0,-8.2124 -22.45634,0 c -3.49852,10e-6 -5.86115,-0.602 -7.08787,-1.80605 -1.22677,-1.20402 -1.84016,-3.4417 -1.84013,-6.71304 l 0,-3.98694 c -3e-5,-3.27132 0.61336,-5.50898 1.84013,-6.71305 1.22672,-1.204 3.58935,-1.806 7.08787,-1.80605 l 20.44583,0 c 3.38487,5e-5 5.71343,0.57933 6.98566,1.7379 1.29485,1.15863 1.94231,3.21456 1.94234,6.16782 l 0,0.74968 -7.39457,1.73789 0,-4.08916"
           id="path4530" />
        <path
           inkscape:connector-curvature="0"
           style="font-size:485.49575806px;font-style:normal;font-variant:normal;font-weight:bold;font-stretch:normal;text-align:start;line-height:80.00000119%;letter-spacing:0px;word-spacing:0px;writing-mode:lr-tb;text-anchor:start;fill:#ffffff;fill-opacity:1;stroke:none;font-family:BankGothic Md BT Medium;-inkscape-font-specification:'BankGothic Md BT Medium, Bold'"
           d="m 493.52507,498.59904 -22.59264,0 0,22.79709 22.59264,0 0,-7.73534 8.38279,1.7379 0,4.25954 c -6e-5,3.29406 -0.62478,5.5431 -1.87419,6.74713 -1.22682,1.18131 -3.57808,1.77197 -7.05381,1.77197 l -21.50221,0 c -3.49852,0 -5.86116,-0.59066 -7.08788,-1.77197 -1.22677,-1.20403 -1.84013,-3.45307 -1.84013,-6.74713 l 0,-18.98053 c 0,-3.27132 0.61336,-5.50898 1.84013,-6.71305 1.22672,-1.204 3.58936,-1.806 7.08788,-1.80605 l 21.50221,0 c 3.47573,5e-5 5.82699,0.60205 7.05381,1.80605 1.24941,1.20407 1.87413,3.44173 1.87419,6.71305 l 0,3.40764 -8.38279,1.32898 0,-6.81528"
           id="path4532" />
        <path
           inkscape:connector-curvature="0"
           style="font-size:485.49575806px;font-style:normal;font-variant:normal;font-weight:bold;font-stretch:normal;text-align:start;line-height:80.00000119%;letter-spacing:0px;word-spacing:0px;writing-mode:lr-tb;text-anchor:start;fill:#ffffff;fill-opacity:1;stroke:none;font-family:BankGothic Md BT Medium;-inkscape-font-specification:'BankGothic Md BT Medium, Bold'"
           d="m 517.19253,513.7971 15.77735,0 -7.76942,-14.65284 -8.00793,14.65284 m -16.11814,14.38023 20.37768,-36.01873 8.07609,0 20.6503,36.01873 -9.40509,0 -4.3277,-7.87164 -22.83117,0 -4.1914,7.87164 -8.34871,0"
           id="path4534" />
        <path
           inkscape:connector-curvature="0"
           style="font-size:485.49575806px;font-style:normal;font-variant:normal;font-weight:bold;font-stretch:normal;text-align:start;line-height:80.00000119%;letter-spacing:0px;word-spacing:0px;writing-mode:lr-tb;text-anchor:start;fill:#ffffff;fill-opacity:1;stroke:none;font-family:BankGothic Md BT Medium;-inkscape-font-specification:'BankGothic Md BT Medium, Bold'"
           d="m 560.1813,521.39613 10.8363,0 c 5.77023,0 9.85937,-0.89733 12.26749,-2.69202 2.40803,-1.79468 3.61205,-4.75933 3.61208,-8.89394 -3e-5,-3.68024 -0.99961,-6.46313 -2.99871,-8.34871 -1.99918,-1.90825 -4.95247,-2.86239 -8.85985,-2.86242 l -14.85731,0 0,22.79709 m -8.38279,6.7812 0,-36.01873 23.17195,0 c 6.61077,5e-5 11.68814,1.54483 15.23213,4.6344 3.56662,3.08961 5.34994,7.47411 5.35,13.15346 -6e-5,3.36223 -0.69294,6.39502 -2.07866,9.0984 -1.38583,2.68069 -3.33954,4.79342 -5.86114,6.3382 -1.56755,0.97686 -3.52128,1.69246 -5.86114,2.14683 -2.31723,0.43161 -5.29323,0.64744 -8.928,0.64744 l -21.02514,0"
           id="path4536" />
        <path
           inkscape:connector-curvature="0"
           style="font-size:485.49575806px;font-style:normal;font-variant:normal;font-weight:bold;font-stretch:normal;text-align:start;line-height:80.00000119%;letter-spacing:0px;word-spacing:0px;writing-mode:lr-tb;text-anchor:start;fill:#ffffff;fill-opacity:1;stroke:none;font-family:BankGothic Md BT Medium;-inkscape-font-specification:'BankGothic Md BT Medium, Bold'"
           d="m 608.96303,513.7971 15.77738,0 -7.76942,-14.65284 -8.00796,14.65284 m -16.11811,14.38023 20.37767,-36.01873 8.0761,0 20.65028,36.01873 -9.40507,0 -4.3277,-7.87164 -22.83117,0 -4.19141,7.87164 -8.3487,0"
           id="path4538" />
      </g>
    </g>
  </g>
</svg>
