<?xml version="1.0" encoding="UTF-8" standalone="no"?>
<!-- Created with Inkscape (http://www.inkscape.org/) -->

<svg
   xmlns:dc="http://purl.org/dc/elements/1.1/"
   xmlns:cc="http://creativecommons.org/ns#"
   xmlns:rdf="http://www.w3.org/1999/02/22-rdf-syntax-ns#"
   xmlns:svg="http://www.w3.org/2000/svg"
   xmlns="http://www.w3.org/2000/svg"
   xmlns:sodipodi="http://sodipodi.sourceforge.net/DTD/sodipodi-0.dtd"
   xmlns:inkscape="http://www.inkscape.org/namespaces/inkscape"
   width="311"
   height="68.26667"
   id="svg3135"
   version="1.1"
   inkscape:version="0.92.3 (2405546, 2018-03-11)"
   sodipodi:docname="blacklogo2.svg"
   inkscape:export-filename="/tmp/blacklogo2.png"
   inkscape:export-xdpi="90"
   inkscape:export-ydpi="90">
  <defs
     id="defs3137">
    <inkscape:perspective
       sodipodi:type="inkscape:persp3d"
       inkscape:vp_x="0 : 561.25983 : 1"
       inkscape:vp_y="0 : 1066.6667 : 0"
       inkscape:vp_z="793.70078 : 561.25983 : 1"
       inkscape:persp3d-origin="396.85039 : 374.17322 : 1"
       id="perspective3143" />
    <inkscape:perspective
       id="perspective3086"
       inkscape:persp3d-origin="0.53333333 : 0.35555555 : 1"
       inkscape:vp_z="1.0666667 : 0.53333333 : 1"
       inkscape:vp_y="0 : 1066.6667 : 0"
       inkscape:vp_x="0 : 0.53333333 : 1"
       sodipodi:type="inkscape:persp3d" />
  </defs>
  <sodipodi:namedview
     id="base"
     pagecolor="#ffffff"
     bordercolor="#666666"
     borderopacity="1.0"
     inkscape:pageopacity="0.0"
     inkscape:pageshadow="2"
     inkscape:zoom="1.5256227"
     inkscape:cx="50.143075"
     inkscape:cy="22.68724"
     inkscape:document-units="px"
     inkscape:current-layer="layer1"
     showgrid="false"
     inkscape:window-width="1920"
     inkscape:window-height="1052"
     inkscape:window-x="0"
     inkscape:window-y="0"
     inkscape:window-maximized="1" />
  <metadata
     id="metadata3140">
    <rdf:RDF>
      <cc:Work
         rdf:about="">
        <dc:format>image/svg+xml</dc:format>
        <dc:type
           rdf:resource="http://purl.org/dc/dcmitype/StillImage" />
        <dc:title />
      </cc:Work>
    </rdf:RDF>
  </metadata>
  <g
     inkscape:label="Camada 1"
     inkscape:groupmode="layer"
     id="layer1"
     transform="translate(0,-1054.253)">
    <rect
       y="1054.2532"
       x="2.1246299e-06"
       height="68.26667"
       width="311"
       id="rect4500"
       style="fill:#000000;fill-opacity:1;stroke:none;stroke-width:0.51310861" />
    <g
       transform="matrix(0.05760482,0,0,0.05770244,30.486132,1062.684)"
       id="g4502">
      <g
         transform="matrix(1.5106173,0,0,1.5106173,-392.16662,-227.48995)"
         id="g4504">
        <rect
           ry="61.987915"
           rx="61.987915"
           y="121.08747"
           x="-15.098698"
           height="648.86395"
           width="897.77448"
           id="rect4506"
           style="fill:#000000;fill-opacity:1;stroke:#ffffff;stroke-width:18.35894203;stroke-miterlimit:4;stroke-dasharray:none;stroke-opacity:1" />
        <rect
           style="fill:#000000;fill-opacity:1;stroke:#ffffff;stroke-width:18.35894203;stroke-miterlimit:4;stroke-dasharray:none;stroke-opacity:1"
           id="rect4508"
           width="710.12097"
           height="497.08746"
           x="78.728127"
           y="196.97572"
           rx="0"
           ry="0" />
        <path
           style="fill:#ffffff;fill-opacity:1;stroke:none;stroke-width:1.06666672"
           d="M 80.169298,693.50394 V 490.08116 l 233.832072,62.34609 v -63.11164 l 236.70327,63.11164 v -63.11164 l 236.70327,63.11164 v 141.8423 z"
           id="path4510"
           sodipodi:nodetypes="ccccccccc"
           inkscape:connector-curvature="0" />
        <rect
           style="fill:#ffffff;fill-opacity:1;stroke:none;stroke-width:1.06666672"
           id="rect4512"
           width="61.315895"
           height="132.85123"
           x="674.4754"
           y="420.79279"
           rx="0"
           ry="0" />
      </g>
      <path
         sodipodi:nodetypes="cszczzc"
         id="path4514"
         d="m 676.06409,384.05543 -23.24646,-60.49952 c -10.95848,-28.51975 -63.21834,-13.82706 -79.37274,-45.83828 -16.1544,-32.01122 13.84536,-122.70188 13.84536,-122.70188 0,0 14.06883,66.9414 32.72337,89.65598 18.65454,22.7146 61.37128,18.00511 69.16776,41.99154 7.79648,23.98644 -13.11729,97.39216 -13.11729,97.39216 z"
         style="fill:#ffffff;fill-opacity:1;stroke:#000000;stroke-width:1.06666672px;stroke-linecap:butt;stroke-linejoin:miter;stroke-opacity:1"
         inkscape:connector-curvature="0" />
    </g>
    <g
       style="fill:#ffffff"
       transform="matrix(0.47370998,0,0,0.47451276,-21.006942,830.17158)"
       id="g4516">
      <path
         id="path4518"
         d="m 259.90407,531.63741 h -20.64275 v 10.17218 h 20.64275 c 1.59264,2e-5 2.67518,-0.21795 3.2476,-0.65393 0.59723,-0.46015 0.89585,-1.25937 0.89588,-2.39772 v -4.1052 c -3e-5,-1.11407 -0.29865,-1.8891 -0.89588,-2.32509 -0.57242,-0.46013 -1.65496,-0.69022 -3.2476,-0.69024 m -29.67628,31.75174 v -38.4 h 33.74512 c 3.13555,6e-5 5.40015,0.59341 6.79381,1.78013 1.41843,1.16258 2.12767,3.0517 2.12773,5.66737 v 8.5737 c -6e-5,2.59151 -0.7093,4.48063 -2.12773,5.66736 -1.39366,1.16255 -3.65826,1.7438 -6.79381,1.74379 h -24.71159 v 14.96765 h -9.03353"
         style="font-style:normal;font-variant:normal;font-weight:bold;font-stretch:normal;font-size:485.49575806px;line-height:80.00000119%;font-family:'BankGothic Md BT Medium';-inkscape-font-specification:'BankGothic Md BT Medium, Bold';text-align:start;letter-spacing:0px;word-spacing:0px;writing-mode:lr-tb;text-anchor:start;fill:#ffffff;fill-opacity:1;stroke:none;stroke-width:1.06666672"
         inkscape:connector-curvature="0" />
      <path
         id="path4520"
         d="m 263.9785,563.38915 15.80496,-26.6286 h 6.24204 l 16.05096,26.6286 h -7.2875 l -3.35164,-5.8423 h -17.61915 l -3.35164,5.8423 h -6.48803 m 12.60707,-10.70063 h 12.20735 l -6.21129,-11.10037 -5.99606,11.10037"
         style="font-style:normal;font-variant:normal;font-weight:bold;font-stretch:normal;font-size:485.49575806px;line-height:80.00000119%;font-family:'BankGothic Md BT Medium';-inkscape-font-specification:'BankGothic Md BT Medium, Bold';text-align:start;letter-spacing:0px;word-spacing:0px;writing-mode:lr-tb;text-anchor:start;fill:#ffffff;fill-opacity:1;stroke:none;stroke-width:1.06666672"
         inkscape:connector-curvature="0" />
      <path
         id="path4522"
         d="M 329.08149,541.52663 H 310.7551 v 5.62707 h 17.34243 c 2.72636,2e-5 4.56105,0.44075 5.50406,1.32221 0.94293,0.86099 1.41442,2.51117 1.41444,4.95059 v 3.65911 c -2e-5,2.43942 -0.48176,4.09986 -1.44519,4.98133 -0.9635,0.88149 -2.78795,1.32221 -5.47331,1.32221 H 310.8166 c -2.74691,0 -4.61234,-0.44072 -5.5963,-1.32221 -0.96348,-0.88147 -1.44522,-2.54191 -1.44522,-4.98133 v -0.73797 l 5.78081,-1.07621 v 3.13639 h 19.5871 v -6.08829 h -17.25017 c -2.72642,10e-6 -4.57136,-0.44072 -5.53483,-1.3222 -0.96345,-0.90197 -1.4452,-2.56241 -1.44519,-4.98134 v -2.98265 c -1e-5,-2.3984 0.48174,-4.03834 1.44519,-4.91984 0.96347,-0.90194 2.80841,-1.35292 5.53483,-1.35295 h 15.80496 c 2.68539,3e-5 4.52008,0.43051 5.50408,1.29145 1.00442,0.8405 1.50665,2.33696 1.50669,4.48937 v 0.64571 l -5.62706,1.19921 v -2.85966"
         style="font-style:normal;font-variant:normal;font-weight:bold;font-stretch:normal;font-size:485.49575806px;line-height:80.00000119%;font-family:'BankGothic Md BT Medium';-inkscape-font-specification:'BankGothic Md BT Medium, Bold';text-align:start;letter-spacing:0px;word-spacing:0px;writing-mode:lr-tb;text-anchor:start;fill:#ffffff;fill-opacity:1;stroke:none;stroke-width:1.06666672"
         inkscape:connector-curvature="0" />
      <path
         id="path4524"
         d="m 365.37271,541.64964 h -17.49617 v 16.63518 h 17.49617 v -5.6578 l 6.54953,1.32221 v 3.13638 c -3e-5,2.41893 -0.48177,4.07937 -1.44521,4.98133 -0.96349,0.88149 -2.80843,1.32221 -5.5348,1.32221 h -16.6352 c -2.68541,0 -4.50986,-0.44072 -5.47331,-1.32221 -0.96347,-0.88147 -1.44522,-2.54191 -1.4452,-4.98133 v -14.05227 c -2e-5,-2.4189 0.47147,-4.06908 1.41446,-4.95058 0.96345,-0.88145 2.79813,-1.32218 5.50405,-1.32221 h 16.6352 c 2.74688,3e-5 4.59181,0.44076 5.5348,1.32221 0.96344,0.8815 1.44518,2.53168 1.44521,4.95058 v 2.58291 l -6.54953,0.95322 v -4.91983"
         style="font-style:normal;font-variant:normal;font-weight:bold;font-stretch:normal;font-size:485.49575806px;line-height:80.00000119%;font-family:'BankGothic Md BT Medium';-inkscape-font-specification:'BankGothic Md BT Medium, Bold';text-align:start;letter-spacing:0px;word-spacing:0px;writing-mode:lr-tb;text-anchor:start;fill:#ffffff;fill-opacity:1;stroke:none;stroke-width:1.06666672"
         inkscape:connector-curvature="0" />
      <path
         id="path4526"
         d="m 373.1904,563.38915 15.80496,-26.6286 h 6.24205 l 16.05095,26.6286 h -7.2875 l -3.35163,-5.8423 h -17.61916 l -3.35164,5.8423 h -6.48803 m 12.60708,-10.70063 h 12.20734 l -6.21129,-11.10037 -5.99605,11.10037"
         style="font-style:normal;font-variant:normal;font-weight:bold;font-stretch:normal;font-size:485.49575806px;line-height:80.00000119%;font-family:'BankGothic Md BT Medium';-inkscape-font-specification:'BankGothic Md BT Medium, Bold';text-align:start;letter-spacing:0px;word-spacing:0px;writing-mode:lr-tb;text-anchor:start;fill:#ffffff;fill-opacity:1;stroke:none;stroke-width:1.06666672"
         inkscape:connector-curvature="0" />
      <path
         id="path4528"
         d="m 413.69422,563.38915 v -26.6286 h 6.54952 v 21.64727 h 20.87855 v 4.98133 h -27.42807"
         style="font-style:normal;font-variant:normal;font-weight:bold;font-stretch:normal;font-size:485.49575806px;line-height:80.00000119%;font-family:'BankGothic Md BT Medium';-inkscape-font-specification:'BankGothic Md BT Medium, Bold';text-align:start;letter-spacing:0px;word-spacing:0px;writing-mode:lr-tb;text-anchor:start;fill:#ffffff;fill-opacity:1;stroke:none;stroke-width:1.06666672"
         inkscape:connector-curvature="0" />
      <path
         id="path4530"
         d="m 477.95498,531.69358 h -25.1529 v 8.25103 h 23.95342 c 3.75592,2e-5 6.28818,0.64217 7.59676,1.92645 1.3327,1.28431 1.9991,3.67117 1.99913,7.16058 v 5.27047 c -3e-5,3.48943 -0.66643,5.8763 -1.99913,7.16059 -1.30858,1.2843 -3.84084,1.92645 -7.59676,1.92645 h -23.73535 c -3.75598,0 -6.30034,-0.64215 -7.6331,-1.92645 -1.30854,-1.28429 -1.9628,-3.67116 -1.96279,-7.16059 v -1.05408 l 7.88754,-1.63567 v 4.54351 h 27.15206 v -8.75989 h -23.95343 c -3.73175,10e-6 -6.25189,-0.64213 -7.56039,-1.92645 -1.30856,-1.28429 -1.96284,-3.67115 -1.96281,-7.16058 v -4.25274 c -3e-5,-3.4894 0.65425,-5.87624 1.96281,-7.16058 1.3085,-1.28427 3.82864,-1.9264 7.56039,-1.92646 h 21.80889 c 3.61053,6e-5 6.09432,0.61796 7.45137,1.85376 1.38117,1.23588 2.0718,3.42887 2.07183,6.57901 v 0.79966 l -7.88754,1.85375 v -4.36177"
         style="font-style:normal;font-variant:normal;font-weight:bold;font-stretch:normal;font-size:485.49575806px;line-height:80.00000119%;font-family:'BankGothic Md BT Medium';-inkscape-font-specification:'BankGothic Md BT Medium, Bold';text-align:start;letter-spacing:0px;word-spacing:0px;writing-mode:lr-tb;text-anchor:start;fill:#ffffff;fill-opacity:1;stroke:none;stroke-width:1.06666672"
         inkscape:connector-curvature="0" />
      <path
         id="path4532"
         d="m 526.42674,531.83898 h -24.09881 v 24.31689 h 24.09881 v -8.25103 l 8.94164,1.85376 v 4.54351 c -6e-5,3.51367 -0.66643,5.91264 -1.99913,7.19694 -1.30861,1.26006 -3.81662,1.8901 -7.52407,1.8901 h -22.93569 c -3.73175,0 -6.2519,-0.63004 -7.5604,-1.8901 -1.30856,-1.2843 -1.96281,-3.68327 -1.96281,-7.19694 v -20.2459 c 0,-3.4894 0.65425,-5.87624 1.96281,-7.16058 1.3085,-1.28427 3.82865,-1.9264 7.5604,-1.92646 h 22.93569 c 3.70745,6e-5 6.21546,0.64219 7.52407,1.92646 1.3327,1.28434 1.99907,3.67118 1.99913,7.16058 v 3.63482 l -8.94164,1.41758 v -7.26963"
         style="font-style:normal;font-variant:normal;font-weight:bold;font-stretch:normal;font-size:485.49575806px;line-height:80.00000119%;font-family:'BankGothic Md BT Medium';-inkscape-font-specification:'BankGothic Md BT Medium, Bold';text-align:start;letter-spacing:0px;word-spacing:0px;writing-mode:lr-tb;text-anchor:start;fill:#ffffff;fill-opacity:1;stroke:none;stroke-width:1.06666672"
         inkscape:connector-curvature="0" />
      <path
         id="path4534"
         d="m 551.67203,548.05024 h 16.82918 l -8.28739,-15.6297 -8.54179,15.6297 m -17.19268,15.33891 21.73619,-38.41998 h 8.6145 l 22.02698,38.41998 h -10.03209 l -4.61622,-8.39641 h -24.35324 l -4.47083,8.39641 h -8.90529"
         style="font-style:normal;font-variant:normal;font-weight:bold;font-stretch:normal;font-size:485.49575806px;line-height:80.00000119%;font-family:'BankGothic Md BT Medium';-inkscape-font-specification:'BankGothic Md BT Medium, Bold';text-align:start;letter-spacing:0px;word-spacing:0px;writing-mode:lr-tb;text-anchor:start;fill:#ffffff;fill-opacity:1;stroke:none;stroke-width:1.06666672"
         inkscape:connector-curvature="0" />
      <path
         id="path4536"
         d="m 597.52672,556.15587 h 11.55872 c 6.15491,0 10.51666,-0.95715 13.08532,-2.87149 2.56857,-1.91432 3.85286,-5.07661 3.85289,-9.48687 -3e-5,-3.92558 -1.06625,-6.894 -3.19863,-8.90529 -2.13245,-2.03546 -5.28263,-3.05321 -9.4505,-3.05324 h -15.8478 v 24.31689 m -8.94164,7.23328 v -38.41998 h 24.71674 c 7.05149,6e-5 12.46735,1.64782 16.24761,4.94336 3.80439,3.29559 5.7066,7.97239 5.70667,14.03036 -7e-5,3.58638 -0.73914,6.82136 -2.21724,9.70496 -1.47822,2.8594 -3.56218,5.11298 -6.25188,6.76075 -1.67206,1.04198 -3.75604,1.80529 -6.25189,2.28995 -2.47171,0.46038 -5.64611,0.6906 -9.5232,0.6906 h -22.42681"
         style="font-style:normal;font-variant:normal;font-weight:bold;font-stretch:normal;font-size:485.49575806px;line-height:80.00000119%;font-family:'BankGothic Md BT Medium';-inkscape-font-specification:'BankGothic Md BT Medium, Bold';text-align:start;letter-spacing:0px;word-spacing:0px;writing-mode:lr-tb;text-anchor:start;fill:#ffffff;fill-opacity:1;stroke:none;stroke-width:1.06666672"
         inkscape:connector-curvature="0" />
      <path
         id="path4538"
         d="m 649.56057,548.05024 h 16.8292 l -8.28738,-15.6297 -8.54182,15.6297 m -17.19266,15.33891 21.73619,-38.41998 h 8.6145 l 22.02697,38.41998 h -10.03208 l -4.61621,-8.39641 h -24.35325 l -4.47084,8.39641 h -8.90528"
         style="font-style:normal;font-variant:normal;font-weight:bold;font-stretch:normal;font-size:485.49575806px;line-height:80.00000119%;font-family:'BankGothic Md BT Medium';-inkscape-font-specification:'BankGothic Md BT Medium, Bold';text-align:start;letter-spacing:0px;word-spacing:0px;writing-mode:lr-tb;text-anchor:start;fill:#ffffff;fill-opacity:1;stroke:none;stroke-width:1.06666672"
         inkscape:connector-curvature="0" />
    </g>
    <g
       id="text4564"
       style="font-style:normal;font-variant:normal;font-weight:bold;font-stretch:normal;font-size:27.96526718px;line-height:125%;font-family:'BankGothic Md BT Medium';-inkscape-font-specification:'BankGothic Md BT Medium, Bold';letter-spacing:0px;word-spacing:0px;fill:#ffffff;fill-opacity:1;stroke:none"
       transform="matrix(0.47370998,0,0,0.47451276,-21.006942,728.78769)">
      <path
         inkscape:connector-curvature="0"
         id="path4667"
         d="m 230.22779,797.82083 v -15.39545 h 3.58304 v 5.97174 h 11.18611 v -5.97174 h 3.61218 v 15.39545 h -3.61218 v -6.62719 h -11.18611 v 6.62719 h -3.58304"
         style="stroke-width:1.06666672" />
      <path
         inkscape:connector-curvature="0"
         id="path4669"
         d="m 256.47435,797.82083 v -15.39545 h 2.89848 l 7.2535,9.30719 7.09326,-9.30719 h 2.86936 v 15.39545 h -3.32088 v -9.5111 c -2e-5,-0.18448 0.01,-0.41753 0.0291,-0.69913 0.0291,-0.28159 0.063,-0.59717 0.10198,-0.94674 -0.19423,0.39812 -0.36416,0.72827 -0.50979,0.99043 -0.14567,0.25247 -0.27676,0.46124 -0.39326,0.62631 l -5.7824,7.69045 H 266 l -5.79697,-7.71958 c -0.21363,-0.2913 -0.39812,-0.56318 -0.55347,-0.81565 -0.14567,-0.26217 -0.26704,-0.51464 -0.36414,-0.7574 0.0291,0.32045 0.0485,0.61176 0.0582,0.87392 0.0194,0.26218 0.0291,0.51465 0.0291,0.75739 v 9.5111 h -2.89849"
         style="stroke-width:1.06666672" />
      <path
         inkscape:connector-curvature="0"
         id="path4671"
         d="m 284.11918,797.82083 v -15.39545 h 3.58305 v 15.39545 h -3.58305"
         style="stroke-width:1.06666672" />
      <path
         inkscape:connector-curvature="0"
         id="path4673"
         d="m 290.95028,798.30148 7.74872,-16.35677 h 1.9663 l -7.80696,16.35677 h -1.90806"
         style="stroke-width:1.06666672" />
      <path
         inkscape:connector-curvature="0"
         id="path4675"
         d="m 317.21141,785.11994 h -10.07914 v 3.30631 h 9.59849 c 1.50506,10e-6 2.51977,0.25733 3.04414,0.77196 0.53404,0.51464 0.80107,1.47109 0.80109,2.86935 v 2.11196 c -2e-5,1.39827 -0.26705,2.35472 -0.80109,2.86935 -0.52437,0.51464 -1.53908,0.77196 -3.04414,0.77196 h -9.5111 c -1.50508,0 -2.52465,-0.25732 -3.0587,-0.77196 -0.52435,-0.51463 -0.78653,-1.47108 -0.78653,-2.86935 v -0.42239 l 3.16066,-0.65543 v 1.82065 h 10.88024 v -3.51022 h -9.5985 c -1.49537,0 -2.50522,-0.25731 -3.02957,-0.77196 -0.52435,-0.51463 -0.78652,-1.47108 -0.78652,-2.86935 v -1.70414 c 0,-1.39825 0.26217,-2.3547 0.78652,-2.86935 0.52435,-0.51462 1.5342,-0.77194 3.02957,-0.77195 h 8.73915 c 1.44679,10e-6 2.44209,0.24761 2.98588,0.74282 0.55346,0.49523 0.83019,1.374 0.83021,2.63631 v 0.32043 l -3.16066,0.74283 v -1.74783"
         style="stroke-width:1.06666672" />
      <path
         inkscape:connector-curvature="0"
         id="path4677"
         d="m 340.90907,785.1782 h -9.65676 v 9.74415 h 9.65676 v -3.30631 l 3.58305,0.74283 v 1.82065 c -2e-5,1.40798 -0.26705,2.36928 -0.80109,2.88393 -0.52437,0.50492 -1.52937,0.75738 -3.01501,0.75738 h -9.19067 c -1.49537,0 -2.50522,-0.25246 -3.02956,-0.75738 -0.52436,-0.51465 -0.78653,-1.47595 -0.78653,-2.88393 v -8.11284 c 0,-1.39825 0.26217,-2.3547 0.78653,-2.86935 0.52434,-0.51462 1.53419,-0.77194 3.02956,-0.77195 h 9.19067 c 1.48564,10e-6 2.49064,0.25733 3.01501,0.77195 0.53404,0.51465 0.80107,1.4711 0.80109,2.86935 v 1.45653 l -3.58305,0.56804 v -2.91305"
         style="stroke-width:1.06666672" />
      <path
         inkscape:connector-curvature="0"
         id="path4679"
         d="m 355.29953,791.6743 h 6.74371 l -3.32087,-6.26306 -3.42284,6.26306 m -6.88935,6.14653 8.71001,-15.39545 h 3.45196 l 8.82654,15.39545 h -4.02001 l -1.84978,-3.36456 h -9.75872 l -1.79152,3.36456 h -3.56848"
         style="stroke-width:1.06666672" />
      <path
         inkscape:connector-curvature="0"
         id="path4681"
         d="m 377.94848,794.92235 h 4.63174 c 2.46637,10e-6 4.2142,-0.38354 5.24349,-1.15066 1.02926,-0.76709 1.5439,-2.03427 1.54392,-3.80152 -2e-5,-1.57304 -0.42727,-2.76253 -1.28174,-3.56848 -0.85451,-0.81565 -2.11683,-1.22347 -3.78697,-1.22349 h -6.35044 v 9.74415 m -3.58305,2.89848 v -15.39545 h 9.90436 c 2.82564,10e-6 4.99586,0.66029 6.51067,1.98086 1.52447,1.3206 2.28672,3.19466 2.28674,5.62219 -2e-5,1.43711 -0.29618,2.73342 -0.88848,3.88891 -0.59234,1.14581 -1.42741,2.04886 -2.50522,2.70915 -0.67002,0.41753 -1.50509,0.7234 -2.50522,0.91761 -0.99046,0.18449 -2.26249,0.27673 -3.8161,0.27673 h -8.98675"
         style="stroke-width:1.06666672" />
      <path
         inkscape:connector-curvature="0"
         id="path4683"
         d="m 403.07353,791.6743 h 6.74371 l -3.32088,-6.26306 -3.42283,6.26306 m -6.88936,6.14653 8.71002,-15.39545 h 3.45195 l 8.82654,15.39545 h -4.02 l -1.84979,-3.36456 h -9.75871 l -1.79153,3.36456 h -3.56848"
         style="stroke-width:1.06666672" />
      <path
         inkscape:connector-curvature="0"
         id="path4685"
         d="m 432.55357,797.82083 v -12.6135 h 13.38546 v 2.25762 h -10.28306 v 3.29174 h 5.53479 v 2.34501 h -5.53479 v 4.71913 h -3.1024"
         style="stroke-width:1.06666672" />
      <path
         inkscape:connector-curvature="0"
         id="path4687"
         d="m 451.75057,795.40301 h 10.16654 v -7.8798 h -10.16654 v 7.8798 m -3.07326,-7.22436 c -10e-6,-1.1458 0.22333,-1.92746 0.67,-2.34501 0.44666,-0.41752 1.31572,-0.62629 2.60718,-0.62631 h 9.75872 c 1.30114,2e-5 2.17019,0.20879 2.60717,0.62631 0.44665,0.41755 0.66998,1.19921 0.67,2.34501 v 6.6563 c -2e-5,1.15552 -0.2282,1.94204 -0.68457,2.35958 -0.44668,0.41753 -1.31089,0.6263 -2.5926,0.6263 h -9.75872 c -1.29146,0 -2.16052,-0.20877 -2.60718,-0.6263 -0.44667,-0.41754 -0.67001,-1.20406 -0.67,-2.35958 v -6.6563"
         style="stroke-width:1.06666672" />
      <path
         inkscape:connector-curvature="0"
         id="path4689"
         d="m 480.35671,787.37756 h -7.02044 v 3.49566 h 7.02044 c 0.53405,0 0.89818,-0.0777 1.0924,-0.23305 0.20389,-0.15536 0.30586,-0.41754 0.30587,-0.78653 v -1.45652 c -10e-6,-0.36897 -0.10198,-0.63115 -0.30587,-0.78652 -0.19422,-0.15536 -0.55835,-0.23303 -1.0924,-0.23304 m -10.05001,10.44327 v -12.6135 h 11.36088 c 1.03898,2e-5 1.79151,0.19422 2.25761,0.58261 0.46608,0.37871 0.69912,1.00016 0.69914,1.86435 v 2.97131 c -2e-5,0.85451 -0.23306,1.47109 -0.69914,1.84979 -0.4661,0.3787 -1.21863,0.56804 -2.25761,0.56804 h -1.73325 l 6.00087,4.7774 h -4.41327 l -5.28718,-4.7774 h -2.89848 v 4.7774 h -3.02957"
         style="stroke-width:1.06666672" />
      <path
         inkscape:connector-curvature="0"
         id="path4691"
         d="m 504.34566,795.46126 h 3.96175 c 2.16536,10e-6 3.68014,-0.31557 4.54436,-0.94673 0.86419,-0.63116 1.29629,-1.69442 1.2963,-3.18979 -10e-6,-1.30116 -0.35929,-2.26732 -1.07782,-2.89849 -0.71857,-0.64086 -1.82067,-0.96129 -3.30631,-0.9613 h -5.41828 v 7.99631 m -3.10239,2.35957 v -12.6135 h 8.49154 c 2.43723,2e-5 4.30644,0.54378 5.60761,1.6313 1.31086,1.07785 1.96629,2.62176 1.96632,4.63176 -3e-5,2.11682 -0.6943,3.70443 -2.08284,4.76284 -1.37886,1.0584 -3.46654,1.5876 -6.26305,1.5876 h -7.71958"
         style="stroke-width:1.06666672" />
      <path
         inkscape:connector-curvature="0"
         id="path4693"
         d="m 521.92592,797.82083 v -12.6135 h 13.53111 v 2.22849 h -10.42871 v 2.75283 h 6.07371 v 2.17022 h -6.07371 v 3.10239 h 10.58893 v 2.35957 h -13.69133"
         style="stroke-width:1.06666672" />
      <path
         inkscape:connector-curvature="0"
         id="path4695"
         d="m 545.94398,797.82083 -7.63218,-12.6135 h 3.48109 l 5.34545,9.14697 5.03957,-9.14697 h 3.18979 l -7.31175,12.6135 h -2.11197"
         style="stroke-width:1.06666672" />
      <path
         inkscape:connector-curvature="0"
         id="path4697"
         d="m 558.92162,797.82083 v -12.6135 h 13.53112 v 2.22849 h -10.42872 v 2.75283 h 6.07371 v 2.17022 h -6.07371 v 3.10239 h 10.58893 v 2.35957 h -13.69133"
         style="stroke-width:1.06666672" />
      <path
         inkscape:connector-curvature="0"
         id="path4699"
         d="m 577.0408,797.82083 v -12.6135 h 3.10239 v 10.25393 h 9.8898 v 2.35957 H 577.0408"
         style="stroke-width:1.06666672" />
      <path
         inkscape:connector-curvature="0"
         id="path4701"
         d="m 596.29605,795.40301 h 10.16654 v -7.8798 h -10.16654 v 7.8798 m -3.07327,-7.22436 c 0,-1.1458 0.22333,-1.92746 0.67001,-2.34501 0.44666,-0.41752 1.31572,-0.62629 2.60718,-0.62631 h 9.75871 c 1.30114,2e-5 2.17021,0.20879 2.60718,0.62631 0.44664,0.41755 0.66998,1.19921 0.67,2.34501 v 6.6563 c -2e-5,1.15552 -0.22821,1.94204 -0.68457,2.35958 -0.44668,0.41753 -1.31088,0.6263 -2.59261,0.6263 h -9.75871 c -1.29146,0 -2.16052,-0.20877 -2.60718,-0.6263 -0.44668,-0.41754 -0.67001,-1.20406 -0.67001,-2.35958 v -6.6563"
         style="stroke-width:1.06666672" />
      <path
         inkscape:connector-curvature="0"
         id="path4703"
         d="m 614.85216,797.82083 v -12.6135 h 11.36089 c 1.04868,2e-5 1.80121,0.19422 2.25761,0.58261 0.46607,0.37871 0.69911,1.00016 0.69913,1.86435 v 2.79653 c -2e-5,0.86421 -0.23306,1.49051 -0.69913,1.87892 -0.46611,0.3787 -1.21864,0.56804 -2.25761,0.56804 h -8.33132 v 4.92305 h -3.02957 m 10.05002,-10.44327 h -7.02045 v 3.35 h 7.02045 c 0.53404,0 0.89817,-0.0777 1.09239,-0.23304 0.20389,-0.15536 0.30586,-0.41753 0.30587,-0.78653 v -1.31087 c -10e-6,-0.36897 -0.10198,-0.63115 -0.30587,-0.78652 -0.19422,-0.15536 -0.55835,-0.23303 -1.09239,-0.23304"
         style="stroke-width:1.06666672" />
      <path
         inkscape:connector-curvature="0"
         id="path4705"
         d="m 633.61218,797.82083 v -12.6135 h 13.53112 v 2.22849 h -10.42872 v 2.75283 h 6.07371 v 2.17022 h -6.07371 v 3.10239 h 10.58893 v 2.35957 h -13.69133"
         style="stroke-width:1.06666672" />
      <path
         inkscape:connector-curvature="0"
         id="path4707"
         d="m 661.78138,787.37756 h -7.02045 v 3.49566 h 7.02045 c 0.53404,0 0.89817,-0.0777 1.09239,-0.23305 0.20389,-0.15536 0.30586,-0.41754 0.30587,-0.78653 v -1.45652 c -10e-6,-0.36897 -0.10198,-0.63115 -0.30587,-0.78652 -0.19422,-0.15536 -0.55835,-0.23303 -1.09239,-0.23304 m -10.05002,10.44327 v -12.6135 h 11.36089 c 1.03897,2e-5 1.7915,0.19422 2.25761,0.58261 0.46607,0.37871 0.69911,1.00016 0.69913,1.86435 v 2.97131 c -2e-5,0.85451 -0.23306,1.47109 -0.69913,1.84979 -0.46611,0.3787 -1.21864,0.56804 -2.25761,0.56804 h -1.73326 l 6.00087,4.7774 h -4.41327 l -5.28718,-4.7774 h -2.89848 v 4.7774 h -3.02957"
         style="stroke-width:1.06666672" />
      <path
         inkscape:connector-curvature="0"
         id="path4709"
         d="m 682.78446,787.46495 h -8.68089 v 2.66544 h 8.21481 c 1.29143,0 2.16049,0.20877 2.60718,0.6263 0.44664,0.40783 0.66998,1.1895 0.66999,2.34501 v 1.73325 c -10e-6,1.15552 -0.2282,1.94204 -0.68456,2.35958 -0.4564,0.41753 -1.3206,0.6263 -2.59261,0.6263 h -8.18568 c -1.30116,0 -2.18479,-0.20877 -2.65087,-0.6263 -0.45638,-0.41754 -0.68456,-1.20406 -0.68456,-2.35958 v -0.34955 l 2.73826,-0.50979 v 1.48565 h 9.27806 v -2.88392 h -8.17109 c -1.29147,10e-6 -2.16538,-0.20875 -2.62175,-0.6263 -0.45639,-0.42724 -0.68457,-1.21376 -0.68457,-2.35957 v -1.41282 c 0,-1.13609 0.22818,-1.9129 0.68457,-2.33045 0.45637,-0.42723 1.33028,-0.64085 2.62175,-0.64087 h 7.48652 c 1.27203,2e-5 2.14108,0.20392 2.60718,0.61174 0.47579,0.39814 0.71369,1.10697 0.7137,2.12653 v 0.30587 l -2.66544,0.56804 v -1.35456"
         style="stroke-width:1.06666672" />
    </g>
    <g
       id="g1208"
       inkscape:export-filename="/tmp/g1208.png"
       inkscape:export-xdpi="91.406242"
       inkscape:export-ydpi="91.406242">
      <rect
         y="1174.2532"
         x="2.6218824"
         height="68.26667"
         width="305.10077"
         id="rect946"
         style="fill:#ffffff;fill-opacity:1;stroke:none;stroke-width:0.50821882" />
      <g
         style="stroke:#000000"
         transform="matrix(0.05760482,0,0,0.05770244,30.486132,1182.684)"
         id="g960">
        <g
           style="stroke:#000000"
           transform="matrix(1.5106173,0,0,1.5106173,-392.16662,-227.48995)"
           id="g956">
          <rect
             ry="61.987915"
             rx="61.987915"
             y="121.08747"
             x="-15.098698"
             height="648.86395"
             width="897.77448"
             id="rect948"
             style="fill:#ffffff;fill-opacity:1;stroke:#000000;stroke-width:18.35894203;stroke-miterlimit:4;stroke-dasharray:none;stroke-opacity:1" />
          <rect
             style="fill:#ffffff;fill-opacity:1;stroke:#000000;stroke-width:18.35894203;stroke-miterlimit:4;stroke-dasharray:none;stroke-opacity:1"
             id="rect950"
             width="710.12097"
             height="497.08746"
             x="78.728127"
             y="196.97572"
             rx="0"
             ry="0" />
          <path
             style="fill:#000000;fill-opacity:1;stroke:#000000;stroke-width:1.06666672"
             d="M 80.169298,693.50394 V 490.08116 l 233.832072,62.34609 v -63.11164 l 236.70327,63.11164 v -63.11164 l 236.70327,63.11164 v 141.8423 z"
             id="path952"
             sodipodi:nodetypes="ccccccccc"
             inkscape:connector-curvature="0" />
          <rect
             style="fill:#000000;fill-opacity:1;stroke:#000000;stroke-width:1.06666672"
             id="rect954"
             width="61.315895"
             height="132.85123"
             x="674.4754"
             y="420.79279"
             rx="0"
             ry="0" />
        </g>
        <path
           sodipodi:nodetypes="cszczzc"
           id="path958"
           d="m 676.06409,384.05543 -23.24646,-60.49952 c -10.95848,-28.51975 -63.21834,-13.82706 -79.37274,-45.83828 -16.1544,-32.01122 13.84536,-122.70188 13.84536,-122.70188 0,0 14.06883,66.9414 32.72337,89.65598 18.65454,22.7146 61.37128,18.00511 69.16776,41.99154 7.79648,23.98644 -13.11729,97.39216 -13.11729,97.39216 z"
           style="fill:#000000;fill-opacity:1;stroke:#000000;stroke-width:1.06666672px;stroke-linecap:butt;stroke-linejoin:miter;stroke-opacity:1"
           inkscape:connector-curvature="0" />
      </g>
      <g
         style="fill:#000000"
         transform="matrix(0.47370998,0,0,0.47451276,-21.006942,950.17158)"
         id="g984">
        <path
           id="path962"
           d="m 259.90407,531.63741 h -20.64275 v 10.17218 h 20.64275 c 1.59264,2e-5 2.67518,-0.21795 3.2476,-0.65393 0.59723,-0.46015 0.89585,-1.25937 0.89588,-2.39772 v -4.1052 c -3e-5,-1.11407 -0.29865,-1.8891 -0.89588,-2.32509 -0.57242,-0.46013 -1.65496,-0.69022 -3.2476,-0.69024 m -29.67628,31.75174 v -38.4 h 33.74512 c 3.13555,6e-5 5.40015,0.59341 6.79381,1.78013 1.41843,1.16258 2.12767,3.0517 2.12773,5.66737 v 8.5737 c -6e-5,2.59151 -0.7093,4.48063 -2.12773,5.66736 -1.39366,1.16255 -3.65826,1.7438 -6.79381,1.74379 h -24.71159 v 14.96765 h -9.03353"
           style="font-style:normal;font-variant:normal;font-weight:bold;font-stretch:normal;font-size:485.49575806px;line-height:80.00000119%;font-family:'BankGothic Md BT Medium';-inkscape-font-specification:'BankGothic Md BT Medium, Bold';text-align:start;letter-spacing:0px;word-spacing:0px;writing-mode:lr-tb;text-anchor:start;fill:#000000;fill-opacity:1;stroke:none;stroke-width:1.06666672"
           inkscape:connector-curvature="0" />
        <path
           id="path964"
           d="m 263.9785,563.38915 15.80496,-26.6286 h 6.24204 l 16.05096,26.6286 h -7.2875 l -3.35164,-5.8423 h -17.61915 l -3.35164,5.8423 h -6.48803 m 12.60707,-10.70063 h 12.20735 l -6.21129,-11.10037 -5.99606,11.10037"
           style="font-style:normal;font-variant:normal;font-weight:bold;font-stretch:normal;font-size:485.49575806px;line-height:80.00000119%;font-family:'BankGothic Md BT Medium';-inkscape-font-specification:'BankGothic Md BT Medium, Bold';text-align:start;letter-spacing:0px;word-spacing:0px;writing-mode:lr-tb;text-anchor:start;fill:#000000;fill-opacity:1;stroke:none;stroke-width:1.06666672"
           inkscape:connector-curvature="0" />
        <path
           id="path966"
           d="M 329.08149,541.52663 H 310.7551 v 5.62707 h 17.34243 c 2.72636,2e-5 4.56105,0.44075 5.50406,1.32221 0.94293,0.86099 1.41442,2.51117 1.41444,4.95059 v 3.65911 c -2e-5,2.43942 -0.48176,4.09986 -1.44519,4.98133 -0.9635,0.88149 -2.78795,1.32221 -5.47331,1.32221 H 310.8166 c -2.74691,0 -4.61234,-0.44072 -5.5963,-1.32221 -0.96348,-0.88147 -1.44522,-2.54191 -1.44522,-4.98133 v -0.73797 l 5.78081,-1.07621 v 3.13639 h 19.5871 v -6.08829 h -17.25017 c -2.72642,10e-6 -4.57136,-0.44072 -5.53483,-1.3222 -0.96345,-0.90197 -1.4452,-2.56241 -1.44519,-4.98134 v -2.98265 c -1e-5,-2.3984 0.48174,-4.03834 1.44519,-4.91984 0.96347,-0.90194 2.80841,-1.35292 5.53483,-1.35295 h 15.80496 c 2.68539,3e-5 4.52008,0.43051 5.50408,1.29145 1.00442,0.8405 1.50665,2.33696 1.50669,4.48937 v 0.64571 l -5.62706,1.19921 v -2.85966"
           style="font-style:normal;font-variant:normal;font-weight:bold;font-stretch:normal;font-size:485.49575806px;line-height:80.00000119%;font-family:'BankGothic Md BT Medium';-inkscape-font-specification:'BankGothic Md BT Medium, Bold';text-align:start;letter-spacing:0px;word-spacing:0px;writing-mode:lr-tb;text-anchor:start;fill:#000000;fill-opacity:1;stroke:none;stroke-width:1.06666672"
           inkscape:connector-curvature="0" />
        <path
           id="path968"
           d="m 365.37271,541.64964 h -17.49617 v 16.63518 h 17.49617 v -5.6578 l 6.54953,1.32221 v 3.13638 c -3e-5,2.41893 -0.48177,4.07937 -1.44521,4.98133 -0.96349,0.88149 -2.80843,1.32221 -5.5348,1.32221 h -16.6352 c -2.68541,0 -4.50986,-0.44072 -5.47331,-1.32221 -0.96347,-0.88147 -1.44522,-2.54191 -1.4452,-4.98133 v -14.05227 c -2e-5,-2.4189 0.47147,-4.06908 1.41446,-4.95058 0.96345,-0.88145 2.79813,-1.32218 5.50405,-1.32221 h 16.6352 c 2.74688,3e-5 4.59181,0.44076 5.5348,1.32221 0.96344,0.8815 1.44518,2.53168 1.44521,4.95058 v 2.58291 l -6.54953,0.95322 v -4.91983"
           style="font-style:normal;font-variant:normal;font-weight:bold;font-stretch:normal;font-size:485.49575806px;line-height:80.00000119%;font-family:'BankGothic Md BT Medium';-inkscape-font-specification:'BankGothic Md BT Medium, Bold';text-align:start;letter-spacing:0px;word-spacing:0px;writing-mode:lr-tb;text-anchor:start;fill:#000000;fill-opacity:1;stroke:none;stroke-width:1.06666672"
           inkscape:connector-curvature="0" />
        <path
           id="path970"
           d="m 373.1904,563.38915 15.80496,-26.6286 h 6.24205 l 16.05095,26.6286 h -7.2875 l -3.35163,-5.8423 h -17.61916 l -3.35164,5.8423 h -6.48803 m 12.60708,-10.70063 h 12.20734 l -6.21129,-11.10037 -5.99605,11.10037"
           style="font-style:normal;font-variant:normal;font-weight:bold;font-stretch:normal;font-size:485.49575806px;line-height:80.00000119%;font-family:'BankGothic Md BT Medium';-inkscape-font-specification:'BankGothic Md BT Medium, Bold';text-align:start;letter-spacing:0px;word-spacing:0px;writing-mode:lr-tb;text-anchor:start;fill:#000000;fill-opacity:1;stroke:none;stroke-width:1.06666672"
           inkscape:connector-curvature="0" />
        <path
           id="path972"
           d="m 413.69422,563.38915 v -26.6286 h 6.54952 v 21.64727 h 20.87855 v 4.98133 h -27.42807"
           style="font-style:normal;font-variant:normal;font-weight:bold;font-stretch:normal;font-size:485.49575806px;line-height:80.00000119%;font-family:'BankGothic Md BT Medium';-inkscape-font-specification:'BankGothic Md BT Medium, Bold';text-align:start;letter-spacing:0px;word-spacing:0px;writing-mode:lr-tb;text-anchor:start;fill:#000000;fill-opacity:1;stroke:none;stroke-width:1.06666672"
           inkscape:connector-curvature="0" />
        <path
           id="path974"
           d="m 477.95498,531.69358 h -25.1529 v 8.25103 h 23.95342 c 3.75592,2e-5 6.28818,0.64217 7.59676,1.92645 1.3327,1.28431 1.9991,3.67117 1.99913,7.16058 v 5.27047 c -3e-5,3.48943 -0.66643,5.8763 -1.99913,7.16059 -1.30858,1.2843 -3.84084,1.92645 -7.59676,1.92645 h -23.73535 c -3.75598,0 -6.30034,-0.64215 -7.6331,-1.92645 -1.30854,-1.28429 -1.9628,-3.67116 -1.96279,-7.16059 v -1.05408 l 7.88754,-1.63567 v 4.54351 h 27.15206 v -8.75989 h -23.95343 c -3.73175,10e-6 -6.25189,-0.64213 -7.56039,-1.92645 -1.30856,-1.28429 -1.96284,-3.67115 -1.96281,-7.16058 v -4.25274 c -3e-5,-3.4894 0.65425,-5.87624 1.96281,-7.16058 1.3085,-1.28427 3.82864,-1.9264 7.56039,-1.92646 h 21.80889 c 3.61053,6e-5 6.09432,0.61796 7.45137,1.85376 1.38117,1.23588 2.0718,3.42887 2.07183,6.57901 v 0.79966 l -7.88754,1.85375 v -4.36177"
           style="font-style:normal;font-variant:normal;font-weight:bold;font-stretch:normal;font-size:485.49575806px;line-height:80.00000119%;font-family:'BankGothic Md BT Medium';-inkscape-font-specification:'BankGothic Md BT Medium, Bold';text-align:start;letter-spacing:0px;word-spacing:0px;writing-mode:lr-tb;text-anchor:start;fill:#000000;fill-opacity:1;stroke:none;stroke-width:1.06666672"
           inkscape:connector-curvature="0" />
        <path
           id="path976"
           d="m 526.42674,531.83898 h -24.09881 v 24.31689 h 24.09881 v -8.25103 l 8.94164,1.85376 v 4.54351 c -6e-5,3.51367 -0.66643,5.91264 -1.99913,7.19694 -1.30861,1.26006 -3.81662,1.8901 -7.52407,1.8901 h -22.93569 c -3.73175,0 -6.2519,-0.63004 -7.5604,-1.8901 -1.30856,-1.2843 -1.96281,-3.68327 -1.96281,-7.19694 v -20.2459 c 0,-3.4894 0.65425,-5.87624 1.96281,-7.16058 1.3085,-1.28427 3.82865,-1.9264 7.5604,-1.92646 h 22.93569 c 3.70745,6e-5 6.21546,0.64219 7.52407,1.92646 1.3327,1.28434 1.99907,3.67118 1.99913,7.16058 v 3.63482 l -8.94164,1.41758 v -7.26963"
           style="font-style:normal;font-variant:normal;font-weight:bold;font-stretch:normal;font-size:485.49575806px;line-height:80.00000119%;font-family:'BankGothic Md BT Medium';-inkscape-font-specification:'BankGothic Md BT Medium, Bold';text-align:start;letter-spacing:0px;word-spacing:0px;writing-mode:lr-tb;text-anchor:start;fill:#000000;fill-opacity:1;stroke:none;stroke-width:1.06666672"
           inkscape:connector-curvature="0" />
        <path
           id="path978"
           d="m 551.67203,548.05024 h 16.82918 l -8.28739,-15.6297 -8.54179,15.6297 m -17.19268,15.33891 21.73619,-38.41998 h 8.6145 l 22.02698,38.41998 h -10.03209 l -4.61622,-8.39641 h -24.35324 l -4.47083,8.39641 h -8.90529"
           style="font-style:normal;font-variant:normal;font-weight:bold;font-stretch:normal;font-size:485.49575806px;line-height:80.00000119%;font-family:'BankGothic Md BT Medium';-inkscape-font-specification:'BankGothic Md BT Medium, Bold';text-align:start;letter-spacing:0px;word-spacing:0px;writing-mode:lr-tb;text-anchor:start;fill:#000000;fill-opacity:1;stroke:none;stroke-width:1.06666672"
           inkscape:connector-curvature="0" />
        <path
           id="path980"
           d="m 597.52672,556.15587 h 11.55872 c 6.15491,0 10.51666,-0.95715 13.08532,-2.87149 2.56857,-1.91432 3.85286,-5.07661 3.85289,-9.48687 -3e-5,-3.92558 -1.06625,-6.894 -3.19863,-8.90529 -2.13245,-2.03546 -5.28263,-3.05321 -9.4505,-3.05324 h -15.8478 v 24.31689 m -8.94164,7.23328 v -38.41998 h 24.71674 c 7.05149,6e-5 12.46735,1.64782 16.24761,4.94336 3.80439,3.29559 5.7066,7.97239 5.70667,14.03036 -7e-5,3.58638 -0.73914,6.82136 -2.21724,9.70496 -1.47822,2.8594 -3.56218,5.11298 -6.25188,6.76075 -1.67206,1.04198 -3.75604,1.80529 -6.25189,2.28995 -2.47171,0.46038 -5.64611,0.6906 -9.5232,0.6906 h -22.42681"
           style="font-style:normal;font-variant:normal;font-weight:bold;font-stretch:normal;font-size:485.49575806px;line-height:80.00000119%;font-family:'BankGothic Md BT Medium';-inkscape-font-specification:'BankGothic Md BT Medium, Bold';text-align:start;letter-spacing:0px;word-spacing:0px;writing-mode:lr-tb;text-anchor:start;fill:#000000;fill-opacity:1;stroke:none;stroke-width:1.06666672"
           inkscape:connector-curvature="0" />
        <path
           id="path982"
           d="m 649.56057,548.05024 h 16.8292 l -8.28738,-15.6297 -8.54182,15.6297 m -17.19266,15.33891 21.73619,-38.41998 h 8.6145 l 22.02697,38.41998 h -10.03208 l -4.61621,-8.39641 h -24.35325 l -4.47084,8.39641 h -8.90528"
           style="font-style:normal;font-variant:normal;font-weight:bold;font-stretch:normal;font-size:485.49575806px;line-height:80.00000119%;font-family:'BankGothic Md BT Medium';-inkscape-font-specification:'BankGothic Md BT Medium, Bold';text-align:start;letter-spacing:0px;word-spacing:0px;writing-mode:lr-tb;text-anchor:start;fill:#000000;fill-opacity:1;stroke:none;stroke-width:1.06666672"
           inkscape:connector-curvature="0" />
      </g>
      <g
         id="g1030"
         style="font-style:normal;font-variant:normal;font-weight:bold;font-stretch:normal;font-size:27.96526718px;line-height:125%;font-family:'BankGothic Md BT Medium';-inkscape-font-specification:'BankGothic Md BT Medium, Bold';letter-spacing:0px;word-spacing:0px;fill:#000000;fill-opacity:1;stroke:none"
         transform="matrix(0.47370998,0,0,0.47451276,-21.006942,848.78769)">
        <path
           inkscape:connector-curvature="0"
           id="path986"
           d="m 230.22779,797.82083 v -15.39545 h 3.58304 v 5.97174 h 11.18611 v -5.97174 h 3.61218 v 15.39545 h -3.61218 v -6.62719 h -11.18611 v 6.62719 h -3.58304"
           style="fill:#000000;stroke-width:1.06666672" />
        <path
           inkscape:connector-curvature="0"
           id="path988"
           d="m 256.47435,797.82083 v -15.39545 h 2.89848 l 7.2535,9.30719 7.09326,-9.30719 h 2.86936 v 15.39545 h -3.32088 v -9.5111 c -2e-5,-0.18448 0.01,-0.41753 0.0291,-0.69913 0.0291,-0.28159 0.063,-0.59717 0.10198,-0.94674 -0.19423,0.39812 -0.36416,0.72827 -0.50979,0.99043 -0.14567,0.25247 -0.27676,0.46124 -0.39326,0.62631 l -5.7824,7.69045 H 266 l -5.79697,-7.71958 c -0.21363,-0.2913 -0.39812,-0.56318 -0.55347,-0.81565 -0.14567,-0.26217 -0.26704,-0.51464 -0.36414,-0.7574 0.0291,0.32045 0.0485,0.61176 0.0582,0.87392 0.0194,0.26218 0.0291,0.51465 0.0291,0.75739 v 9.5111 h -2.89849"
           style="fill:#000000;stroke-width:1.06666672" />
        <path
           inkscape:connector-curvature="0"
           id="path990"
           d="m 284.11918,797.82083 v -15.39545 h 3.58305 v 15.39545 h -3.58305"
           style="fill:#000000;stroke-width:1.06666672" />
        <path
           inkscape:connector-curvature="0"
           id="path992"
           d="m 290.95028,798.30148 7.74872,-16.35677 h 1.9663 l -7.80696,16.35677 h -1.90806"
           style="fill:#000000;stroke-width:1.06666672" />
        <path
           inkscape:connector-curvature="0"
           id="path994"
           d="m 317.21141,785.11994 h -10.07914 v 3.30631 h 9.59849 c 1.50506,10e-6 2.51977,0.25733 3.04414,0.77196 0.53404,0.51464 0.80107,1.47109 0.80109,2.86935 v 2.11196 c -2e-5,1.39827 -0.26705,2.35472 -0.80109,2.86935 -0.52437,0.51464 -1.53908,0.77196 -3.04414,0.77196 h -9.5111 c -1.50508,0 -2.52465,-0.25732 -3.0587,-0.77196 -0.52435,-0.51463 -0.78653,-1.47108 -0.78653,-2.86935 v -0.42239 l 3.16066,-0.65543 v 1.82065 h 10.88024 v -3.51022 h -9.5985 c -1.49537,0 -2.50522,-0.25731 -3.02957,-0.77196 -0.52435,-0.51463 -0.78652,-1.47108 -0.78652,-2.86935 v -1.70414 c 0,-1.39825 0.26217,-2.3547 0.78652,-2.86935 0.52435,-0.51462 1.5342,-0.77194 3.02957,-0.77195 h 8.73915 c 1.44679,10e-6 2.44209,0.24761 2.98588,0.74282 0.55346,0.49523 0.83019,1.374 0.83021,2.63631 v 0.32043 l -3.16066,0.74283 v -1.74783"
           style="fill:#000000;stroke-width:1.06666672" />
        <path
           inkscape:connector-curvature="0"
           id="path996"
           d="m 340.90907,785.1782 h -9.65676 v 9.74415 h 9.65676 v -3.30631 l 3.58305,0.74283 v 1.82065 c -2e-5,1.40798 -0.26705,2.36928 -0.80109,2.88393 -0.52437,0.50492 -1.52937,0.75738 -3.01501,0.75738 h -9.19067 c -1.49537,0 -2.50522,-0.25246 -3.02956,-0.75738 -0.52436,-0.51465 -0.78653,-1.47595 -0.78653,-2.88393 v -8.11284 c 0,-1.39825 0.26217,-2.3547 0.78653,-2.86935 0.52434,-0.51462 1.53419,-0.77194 3.02956,-0.77195 h 9.19067 c 1.48564,10e-6 2.49064,0.25733 3.01501,0.77195 0.53404,0.51465 0.80107,1.4711 0.80109,2.86935 v 1.45653 l -3.58305,0.56804 v -2.91305"
           style="fill:#000000;stroke-width:1.06666672" />
        <path
           inkscape:connector-curvature="0"
           id="path998"
           d="m 355.29953,791.6743 h 6.74371 l -3.32087,-6.26306 -3.42284,6.26306 m -6.88935,6.14653 8.71001,-15.39545 h 3.45196 l 8.82654,15.39545 h -4.02001 l -1.84978,-3.36456 h -9.75872 l -1.79152,3.36456 h -3.56848"
           style="fill:#000000;stroke-width:1.06666672" />
        <path
           inkscape:connector-curvature="0"
           id="path1000"
           d="m 377.94848,794.92235 h 4.63174 c 2.46637,10e-6 4.2142,-0.38354 5.24349,-1.15066 1.02926,-0.76709 1.5439,-2.03427 1.54392,-3.80152 -2e-5,-1.57304 -0.42727,-2.76253 -1.28174,-3.56848 -0.85451,-0.81565 -2.11683,-1.22347 -3.78697,-1.22349 h -6.35044 v 9.74415 m -3.58305,2.89848 v -15.39545 h 9.90436 c 2.82564,10e-6 4.99586,0.66029 6.51067,1.98086 1.52447,1.3206 2.28672,3.19466 2.28674,5.62219 -2e-5,1.43711 -0.29618,2.73342 -0.88848,3.88891 -0.59234,1.14581 -1.42741,2.04886 -2.50522,2.70915 -0.67002,0.41753 -1.50509,0.7234 -2.50522,0.91761 -0.99046,0.18449 -2.26249,0.27673 -3.8161,0.27673 h -8.98675"
           style="fill:#000000;stroke-width:1.06666672" />
        <path
           inkscape:connector-curvature="0"
           id="path1002"
           d="m 403.07353,791.6743 h 6.74371 l -3.32088,-6.26306 -3.42283,6.26306 m -6.88936,6.14653 8.71002,-15.39545 h 3.45195 l 8.82654,15.39545 h -4.02 l -1.84979,-3.36456 h -9.75871 l -1.79153,3.36456 h -3.56848"
           style="fill:#000000;stroke-width:1.06666672" />
        <path
           inkscape:connector-curvature="0"
           id="path1004"
           d="m 432.55357,797.82083 v -12.6135 h 13.38546 v 2.25762 h -10.28306 v 3.29174 h 5.53479 v 2.34501 h -5.53479 v 4.71913 h -3.1024"
           style="fill:#000000;stroke-width:1.06666672" />
        <path
           inkscape:connector-curvature="0"
           id="path1006"
           d="m 451.75057,795.40301 h 10.16654 v -7.8798 h -10.16654 v 7.8798 m -3.07326,-7.22436 c -10e-6,-1.1458 0.22333,-1.92746 0.67,-2.34501 0.44666,-0.41752 1.31572,-0.62629 2.60718,-0.62631 h 9.75872 c 1.30114,2e-5 2.17019,0.20879 2.60717,0.62631 0.44665,0.41755 0.66998,1.19921 0.67,2.34501 v 6.6563 c -2e-5,1.15552 -0.2282,1.94204 -0.68457,2.35958 -0.44668,0.41753 -1.31089,0.6263 -2.5926,0.6263 h -9.75872 c -1.29146,0 -2.16052,-0.20877 -2.60718,-0.6263 -0.44667,-0.41754 -0.67001,-1.20406 -0.67,-2.35958 v -6.6563"
           style="fill:#000000;stroke-width:1.06666672" />
        <path
           inkscape:connector-curvature="0"
           id="path1008"
           d="m 480.35671,787.37756 h -7.02044 v 3.49566 h 7.02044 c 0.53405,0 0.89818,-0.0777 1.0924,-0.23305 0.20389,-0.15536 0.30586,-0.41754 0.30587,-0.78653 v -1.45652 c -10e-6,-0.36897 -0.10198,-0.63115 -0.30587,-0.78652 -0.19422,-0.15536 -0.55835,-0.23303 -1.0924,-0.23304 m -10.05001,10.44327 v -12.6135 h 11.36088 c 1.03898,2e-5 1.79151,0.19422 2.25761,0.58261 0.46608,0.37871 0.69912,1.00016 0.69914,1.86435 v 2.97131 c -2e-5,0.85451 -0.23306,1.47109 -0.69914,1.84979 -0.4661,0.3787 -1.21863,0.56804 -2.25761,0.56804 h -1.73325 l 6.00087,4.7774 h -4.41327 l -5.28718,-4.7774 h -2.89848 v 4.7774 h -3.02957"
           style="fill:#000000;stroke-width:1.06666672" />
        <path
           inkscape:connector-curvature="0"
           id="path1010"
           d="m 504.34566,795.46126 h 3.96175 c 2.16536,10e-6 3.68014,-0.31557 4.54436,-0.94673 0.86419,-0.63116 1.29629,-1.69442 1.2963,-3.18979 -10e-6,-1.30116 -0.35929,-2.26732 -1.07782,-2.89849 -0.71857,-0.64086 -1.82067,-0.96129 -3.30631,-0.9613 h -5.41828 v 7.99631 m -3.10239,2.35957 v -12.6135 h 8.49154 c 2.43723,2e-5 4.30644,0.54378 5.60761,1.6313 1.31086,1.07785 1.96629,2.62176 1.96632,4.63176 -3e-5,2.11682 -0.6943,3.70443 -2.08284,4.76284 -1.37886,1.0584 -3.46654,1.5876 -6.26305,1.5876 h -7.71958"
           style="fill:#000000;stroke-width:1.06666672" />
        <path
           inkscape:connector-curvature="0"
           id="path1012"
           d="m 521.92592,797.82083 v -12.6135 h 13.53111 v 2.22849 h -10.42871 v 2.75283 h 6.07371 v 2.17022 h -6.07371 v 3.10239 h 10.58893 v 2.35957 h -13.69133"
           style="fill:#000000;stroke-width:1.06666672" />
        <path
           inkscape:connector-curvature="0"
           id="path1014"
           d="m 545.94398,797.82083 -7.63218,-12.6135 h 3.48109 l 5.34545,9.14697 5.03957,-9.14697 h 3.18979 l -7.31175,12.6135 h -2.11197"
           style="fill:#000000;stroke-width:1.06666672" />
        <path
           inkscape:connector-curvature="0"
           id="path1016"
           d="m 558.92162,797.82083 v -12.6135 h 13.53112 v 2.22849 h -10.42872 v 2.75283 h 6.07371 v 2.17022 h -6.07371 v 3.10239 h 10.58893 v 2.35957 h -13.69133"
           style="fill:#000000;stroke-width:1.06666672" />
        <path
           inkscape:connector-curvature="0"
           id="path1018"
           d="m 577.0408,797.82083 v -12.6135 h 3.10239 v 10.25393 h 9.8898 v 2.35957 H 577.0408"
           style="fill:#000000;stroke-width:1.06666672" />
        <path
           inkscape:connector-curvature="0"
           id="path1020"
           d="m 596.29605,795.40301 h 10.16654 v -7.8798 h -10.16654 v 7.8798 m -3.07327,-7.22436 c 0,-1.1458 0.22333,-1.92746 0.67001,-2.34501 0.44666,-0.41752 1.31572,-0.62629 2.60718,-0.62631 h 9.75871 c 1.30114,2e-5 2.17021,0.20879 2.60718,0.62631 0.44664,0.41755 0.66998,1.19921 0.67,2.34501 v 6.6563 c -2e-5,1.15552 -0.22821,1.94204 -0.68457,2.35958 -0.44668,0.41753 -1.31088,0.6263 -2.59261,0.6263 h -9.75871 c -1.29146,0 -2.16052,-0.20877 -2.60718,-0.6263 -0.44668,-0.41754 -0.67001,-1.20406 -0.67001,-2.35958 v -6.6563"
           style="fill:#000000;stroke-width:1.06666672" />
        <path
           inkscape:connector-curvature="0"
           id="path1022"
           d="m 614.85216,797.82083 v -12.6135 h 11.36089 c 1.04868,2e-5 1.80121,0.19422 2.25761,0.58261 0.46607,0.37871 0.69911,1.00016 0.69913,1.86435 v 2.79653 c -2e-5,0.86421 -0.23306,1.49051 -0.69913,1.87892 -0.46611,0.3787 -1.21864,0.56804 -2.25761,0.56804 h -8.33132 v 4.92305 h -3.02957 m 10.05002,-10.44327 h -7.02045 v 3.35 h 7.02045 c 0.53404,0 0.89817,-0.0777 1.09239,-0.23304 0.20389,-0.15536 0.30586,-0.41753 0.30587,-0.78653 v -1.31087 c -10e-6,-0.36897 -0.10198,-0.63115 -0.30587,-0.78652 -0.19422,-0.15536 -0.55835,-0.23303 -1.09239,-0.23304"
           style="fill:#000000;stroke-width:1.06666672" />
        <path
           inkscape:connector-curvature="0"
           id="path1024"
           d="m 633.61218,797.82083 v -12.6135 h 13.53112 v 2.22849 h -10.42872 v 2.75283 h 6.07371 v 2.17022 h -6.07371 v 3.10239 h 10.58893 v 2.35957 h -13.69133"
           style="fill:#000000;stroke-width:1.06666672" />
        <path
           inkscape:connector-curvature="0"
           id="path1026"
           d="m 661.78138,787.37756 h -7.02045 v 3.49566 h 7.02045 c 0.53404,0 0.89817,-0.0777 1.09239,-0.23305 0.20389,-0.15536 0.30586,-0.41754 0.30587,-0.78653 v -1.45652 c -10e-6,-0.36897 -0.10198,-0.63115 -0.30587,-0.78652 -0.19422,-0.15536 -0.55835,-0.23303 -1.09239,-0.23304 m -10.05002,10.44327 v -12.6135 h 11.36089 c 1.03897,2e-5 1.7915,0.19422 2.25761,0.58261 0.46607,0.37871 0.69911,1.00016 0.69913,1.86435 v 2.97131 c -2e-5,0.85451 -0.23306,1.47109 -0.69913,1.84979 -0.46611,0.3787 -1.21864,0.56804 -2.25761,0.56804 h -1.73326 l 6.00087,4.7774 h -4.41327 l -5.28718,-4.7774 h -2.89848 v 4.7774 h -3.02957"
           style="fill:#000000;stroke-width:1.06666672" />
        <path
           inkscape:connector-curvature="0"
           id="path1028"
           d="m 682.78446,787.46495 h -8.68089 v 2.66544 h 8.21481 c 1.29143,0 2.16049,0.20877 2.60718,0.6263 0.44664,0.40783 0.66998,1.1895 0.66999,2.34501 v 1.73325 c -10e-6,1.15552 -0.2282,1.94204 -0.68456,2.35958 -0.4564,0.41753 -1.3206,0.6263 -2.59261,0.6263 h -8.18568 c -1.30116,0 -2.18479,-0.20877 -2.65087,-0.6263 -0.45638,-0.41754 -0.68456,-1.20406 -0.68456,-2.35958 v -0.34955 l 2.73826,-0.50979 v 1.48565 h 9.27806 v -2.88392 h -8.17109 c -1.29147,10e-6 -2.16538,-0.20875 -2.62175,-0.6263 -0.45639,-0.42724 -0.68457,-1.21376 -0.68457,-2.35957 v -1.41282 c 0,-1.13609 0.22818,-1.9129 0.68457,-2.33045 0.45637,-0.42723 1.33028,-0.64085 2.62175,-0.64087 h 7.48652 c 1.27203,2e-5 2.14108,0.20392 2.60718,0.61174 0.47579,0.39814 0.71369,1.10697 0.7137,2.12653 v 0.30587 l -2.66544,0.56804 v -1.35456"
           style="fill:#000000;stroke-width:1.06666672" />
      </g>
    </g>
  </g>
</svg>
